<svg width="151" height="26" viewBox="0 0 151 26" fill="none" xmlns="http://www.w3.org/2000/svg">
<g clip-path="url(#clip0_1835_2586)">
<path fill-rule="evenodd" clip-rule="evenodd" d="M18.4305 4.93473C16.6244 3.12856 13.696 3.12856 11.8898 4.93473L5.54807 11.2765C5.15754 11.667 4.52438 11.667 4.13385 11.2765C3.74333 10.8859 3.74333 10.2528 4.13385 9.86224L10.4756 3.52052C13.0628 0.933297 17.2575 0.933297 19.8447 3.52052C22.432 6.10774 22.432 10.3025 19.8447 12.8897L11.314 21.4205C9.45897 23.2755 6.45144 23.2755 4.59645 21.4205C2.74146 19.5655 2.74146 16.5579 4.59645 14.7029L4.60028 14.6991L4.60029 14.6991L11.0406 8.3282C11.0413 8.32749 11.042 8.32678 11.0427 8.32608C12.1409 7.2301 13.9254 7.14718 15.0718 8.29351C16.1945 9.41627 16.1945 11.2366 15.0718 12.3594L10.564 16.8672C10.1734 17.2577 9.54028 17.2577 9.14975 16.8672C8.75923 16.4767 8.75923 15.8435 9.14975 15.453L13.6576 10.9452C13.9993 10.6034 13.9993 10.0494 13.6576 9.70772C13.3402 9.39033 12.8213 9.37594 12.4548 9.74241L12.451 9.74624L12.451 9.74623L6.01066 16.1172C6.01006 16.1178 6.00946 16.1184 6.00885 16.119C4.93672 17.1931 4.93732 18.9329 6.01066 20.0062C7.0846 21.0802 8.82581 21.0802 9.89975 20.0062L18.4305 11.4755C20.2367 9.6693 20.2367 6.74091 18.4305 4.93473Z" fill="#7772F1"/>
</g>
<path d="M46.824 19H45.624C45.4853 19 45.3733 18.9653 45.288 18.896C45.2027 18.8267 45.1387 18.7387 45.096 18.632L44.024 15.864H38.88L37.808 18.632C37.7707 18.728 37.7067 18.8133 37.616 18.888C37.5253 18.9627 37.4133 19 37.28 19H36.08L40.664 7.536H42.24L46.824 19ZM39.312 14.744H43.592L41.792 10.08C41.6747 9.792 41.56 9.432 41.448 9C41.3893 9.21867 41.3307 9.42133 41.272 9.608C41.2187 9.78933 41.1653 9.94933 41.112 10.088L39.312 14.744ZM50.499 19.128C49.859 19.128 49.3657 18.9493 49.019 18.592C48.6777 18.2347 48.507 17.72 48.507 17.048V12.088H47.531C47.4457 12.088 47.3737 12.064 47.315 12.016C47.2563 11.9627 47.227 11.8827 47.227 11.776V11.208L48.555 11.04L48.883 8.536C48.8937 8.456 48.9283 8.392 48.987 8.344C49.0457 8.29067 49.1203 8.264 49.211 8.264H49.931V11.056H52.251V12.088H49.931V16.952C49.931 17.2933 50.0137 17.5467 50.179 17.712C50.3443 17.8773 50.5577 17.96 50.819 17.96C50.9683 17.96 51.0963 17.9413 51.203 17.904C51.315 17.8613 51.411 17.816 51.491 17.768C51.571 17.72 51.6377 17.6773 51.691 17.64C51.7497 17.5973 51.8003 17.576 51.843 17.576C51.9177 17.576 51.9843 17.6213 52.043 17.712L52.459 18.392C52.2137 18.6213 51.9177 18.8027 51.571 18.936C51.2243 19.064 50.867 19.128 50.499 19.128ZM56.4678 19.128C55.8278 19.128 55.3344 18.9493 54.9878 18.592C54.6464 18.2347 54.4758 17.72 54.4758 17.048V12.088H53.4998C53.4144 12.088 53.3424 12.064 53.2838 12.016C53.2251 11.9627 53.1958 11.8827 53.1958 11.776V11.208L54.5238 11.04L54.8518 8.536C54.8624 8.456 54.8971 8.392 54.9557 8.344C55.0144 8.29067 55.0891 8.264 55.1798 8.264H55.8998V11.056H58.2198V12.088H55.8998V16.952C55.8998 17.2933 55.9824 17.5467 56.1478 17.712C56.3131 17.8773 56.5264 17.96 56.7878 17.96C56.9371 17.96 57.0651 17.9413 57.1718 17.904C57.2838 17.8613 57.3798 17.816 57.4598 17.768C57.5398 17.72 57.6064 17.6773 57.6598 17.64C57.7184 17.5973 57.7691 17.576 57.8118 17.576C57.8864 17.576 57.9531 17.6213 58.0118 17.712L58.4278 18.392C58.1824 18.6213 57.8864 18.8027 57.5398 18.936C57.1931 19.064 56.8358 19.128 56.4678 19.128ZM65.9325 19H65.3005C65.1618 19 65.0498 18.9787 64.9645 18.936C64.8792 18.8933 64.8232 18.8027 64.7965 18.664L64.6365 17.912C64.4232 18.104 64.2152 18.2773 64.0125 18.432C63.8098 18.5813 63.5965 18.7093 63.3725 18.816C63.1485 18.9173 62.9085 18.9947 62.6525 19.048C62.4018 19.1013 62.1218 19.128 61.8125 19.128C61.4978 19.128 61.2018 19.0853 60.9245 19C60.6525 18.9093 60.4152 18.776 60.2125 18.6C60.0098 18.424 59.8472 18.2027 59.7245 17.936C59.6072 17.664 59.5485 17.344 59.5485 16.976C59.5485 16.656 59.6365 16.3493 59.8125 16.056C59.9885 15.7573 60.2712 15.4933 60.6605 15.264C61.0552 15.0347 61.5698 14.848 62.2045 14.704C62.8392 14.5547 63.6152 14.4693 64.5325 14.448V13.816C64.5325 13.1867 64.3965 12.712 64.1245 12.392C63.8578 12.0667 63.4605 11.904 62.9325 11.904C62.5858 11.904 62.2925 11.9493 62.0525 12.04C61.8178 12.1253 61.6125 12.224 61.4365 12.336C61.2658 12.4427 61.1165 12.5413 60.9885 12.632C60.8658 12.7173 60.7432 12.76 60.6205 12.76C60.5245 12.76 60.4392 12.736 60.3645 12.688C60.2952 12.6347 60.2392 12.5707 60.1965 12.496L59.9405 12.04C60.3885 11.608 60.8712 11.2853 61.3885 11.072C61.9058 10.8587 62.4792 10.752 63.1085 10.752C63.5618 10.752 63.9645 10.8267 64.3165 10.976C64.6685 11.1253 64.9645 11.3333 65.2045 11.6C65.4445 11.8667 65.6258 12.1893 65.7485 12.568C65.8712 12.9467 65.9325 13.3627 65.9325 13.816V19ZM62.2365 18.128C62.4872 18.128 62.7165 18.104 62.9245 18.056C63.1325 18.0027 63.3272 17.9307 63.5085 17.84C63.6952 17.744 63.8712 17.6293 64.0365 17.496C64.2072 17.3627 64.3725 17.2107 64.5325 17.04V15.352C63.8765 15.3733 63.3192 15.4267 62.8605 15.512C62.4018 15.592 62.0285 15.6987 61.7405 15.832C61.4525 15.9653 61.2418 16.1227 61.1085 16.304C60.9805 16.4853 60.9165 16.688 60.9165 16.912C60.9165 17.1253 60.9512 17.3093 61.0205 17.464C61.0898 17.6187 61.1832 17.7467 61.3005 17.848C61.4178 17.944 61.5565 18.016 61.7165 18.064C61.8765 18.1067 62.0498 18.128 62.2365 18.128ZM73.6179 12.336C73.5752 12.3947 73.5325 12.44 73.4899 12.472C73.4472 12.504 73.3859 12.52 73.3059 12.52C73.2259 12.52 73.1379 12.488 73.0419 12.424C72.9512 12.3547 72.8339 12.28 72.6899 12.2C72.5459 12.12 72.3699 12.048 72.1619 11.984C71.9592 11.9147 71.7085 11.88 71.4099 11.88C71.0152 11.88 70.6659 11.952 70.3619 12.096C70.0579 12.2347 69.8019 12.4373 69.5939 12.704C69.3912 12.9707 69.2365 13.2933 69.1299 13.672C69.0285 14.0507 68.9779 14.4747 68.9779 14.944C68.9779 15.4347 69.0339 15.872 69.1459 16.256C69.2579 16.6347 69.4152 16.9547 69.6179 17.216C69.8205 17.472 70.0659 17.6693 70.3539 17.808C70.6472 17.9413 70.9752 18.008 71.3379 18.008C71.6845 18.008 71.9699 17.968 72.1939 17.888C72.4179 17.8027 72.6045 17.7093 72.7539 17.608C72.9032 17.5067 73.0259 17.416 73.1219 17.336C73.2179 17.2507 73.3139 17.208 73.4099 17.208C73.5325 17.208 73.6232 17.2533 73.6819 17.344L74.0819 17.864C73.7299 18.296 73.2899 18.6133 72.7619 18.816C72.2339 19.0133 71.6765 19.112 71.0899 19.112C70.5832 19.112 70.1112 19.0187 69.6739 18.832C69.2419 18.6453 68.8659 18.376 68.5459 18.024C68.2259 17.6667 67.9725 17.2293 67.7859 16.712C67.6045 16.1947 67.5139 15.6053 67.5139 14.944C67.5139 14.3413 67.5965 13.784 67.7619 13.272C67.9325 12.76 68.1779 12.32 68.4979 11.952C68.8232 11.5787 69.2232 11.288 69.6979 11.08C70.1725 10.872 70.7165 10.768 71.3299 10.768C71.8952 10.768 72.3965 10.8613 72.8339 11.048C73.2712 11.2293 73.6579 11.488 73.9939 11.824L73.6179 12.336ZM75.5586 19V7.216H76.9826V11.984C77.3293 11.616 77.7133 11.3227 78.1346 11.104C78.556 10.88 79.0413 10.768 79.5906 10.768C80.0333 10.768 80.4226 10.8427 80.7586 10.992C81.1 11.136 81.3826 11.344 81.6066 11.616C81.836 11.8827 82.0093 12.2053 82.1266 12.584C82.244 12.9627 82.3026 13.3813 82.3026 13.84V19H80.8786V13.84C80.8786 13.2267 80.7373 12.752 80.4546 12.416C80.1773 12.0747 79.7506 11.904 79.1746 11.904C78.7533 11.904 78.3586 12.0053 77.9906 12.208C77.628 12.4107 77.292 12.6853 76.9826 13.032V19H75.5586ZM89.919 21.392C89.871 21.4987 89.8097 21.584 89.735 21.648C89.6657 21.712 89.5563 21.744 89.407 21.744H88.351L89.831 18.528L86.487 10.896H87.719C87.8417 10.896 87.9377 10.928 88.007 10.992C88.0763 11.0507 88.127 11.1173 88.159 11.192L90.327 16.296C90.375 16.4133 90.415 16.5307 90.447 16.648C90.4843 16.7653 90.5163 16.8853 90.543 17.008C90.5803 16.8853 90.6177 16.7653 90.655 16.648C90.6923 16.5307 90.735 16.4107 90.783 16.288L92.887 11.192C92.919 11.1067 92.9723 11.0373 93.047 10.984C93.127 10.9253 93.2123 10.896 93.303 10.896H94.439L89.919 21.392ZM98.8074 10.768C99.3994 10.768 99.9327 10.8667 100.407 11.064C100.887 11.2613 101.293 11.5413 101.623 11.904C101.959 12.2667 102.215 12.7067 102.391 13.224C102.573 13.736 102.663 14.3093 102.663 14.944C102.663 15.584 102.573 16.16 102.391 16.672C102.215 17.184 101.959 17.6213 101.623 17.984C101.293 18.3467 100.887 18.6267 100.407 18.824C99.9327 19.016 99.3994 19.112 98.8074 19.112C98.2154 19.112 97.6794 19.016 97.1994 18.824C96.7247 18.6267 96.3194 18.3467 95.9834 17.984C95.6474 17.6213 95.3887 17.184 95.2074 16.672C95.026 16.16 94.9354 15.584 94.9354 14.944C94.9354 14.3093 95.026 13.736 95.2074 13.224C95.3887 12.7067 95.6474 12.2667 95.9834 11.904C96.3194 11.5413 96.7247 11.2613 97.1994 11.064C97.6794 10.8667 98.2154 10.768 98.8074 10.768ZM98.8074 18C99.6074 18 100.205 17.7333 100.599 17.2C100.994 16.6613 101.191 15.912 101.191 14.952C101.191 13.9867 100.994 13.2347 100.599 12.696C100.205 12.1573 99.6074 11.888 98.8074 11.888C98.402 11.888 98.05 11.9573 97.7514 12.096C97.4527 12.2347 97.202 12.4347 96.9994 12.696C96.802 12.9573 96.6527 13.28 96.5514 13.664C96.4554 14.0427 96.4074 14.472 96.4074 14.952C96.4074 15.432 96.4554 15.8613 96.5514 16.24C96.6527 16.6187 96.802 16.9387 96.9994 17.2C97.202 17.456 97.4527 17.6533 97.7514 17.792C98.05 17.9307 98.402 18 98.8074 18ZM105.65 10.896V16.064C105.65 16.6773 105.791 17.152 106.074 17.488C106.357 17.824 106.783 17.992 107.354 17.992C107.77 17.992 108.162 17.8933 108.53 17.696C108.898 17.4987 109.237 17.224 109.546 16.872V10.896H110.97V19H110.122C109.919 19 109.791 18.9013 109.738 18.704L109.626 17.832C109.274 18.2213 108.879 18.536 108.442 18.776C108.005 19.0107 107.503 19.128 106.938 19.128C106.495 19.128 106.103 19.056 105.762 18.912C105.426 18.7627 105.143 18.5547 104.914 18.288C104.685 18.0213 104.511 17.6987 104.394 17.32C104.282 16.9413 104.226 16.5227 104.226 16.064V10.896H105.65ZM113.309 19V10.896H114.125C114.279 10.896 114.386 10.9253 114.445 10.984C114.503 11.0427 114.543 11.144 114.565 11.288L114.661 12.552C114.938 11.9867 115.279 11.5467 115.685 11.232C116.095 10.912 116.575 10.752 117.125 10.752C117.349 10.752 117.551 10.7787 117.733 10.832C117.914 10.88 118.082 10.9493 118.237 11.04L118.053 12.104C118.015 12.2373 117.933 12.304 117.805 12.304C117.73 12.304 117.615 12.28 117.461 12.232C117.306 12.1787 117.09 12.152 116.813 12.152C116.317 12.152 115.901 12.296 115.565 12.584C115.234 12.872 114.957 13.2907 114.733 13.84V19H113.309ZM131.16 16.632C131.245 16.632 131.322 16.6667 131.392 16.736L132 17.4C131.53 17.944 130.96 18.368 130.288 18.672C129.621 18.976 128.816 19.128 127.872 19.128C127.045 19.128 126.296 18.9867 125.624 18.704C124.952 18.416 124.378 18.016 123.904 17.504C123.429 16.9867 123.061 16.368 122.8 15.648C122.538 14.928 122.408 14.136 122.408 13.272C122.408 12.408 122.546 11.616 122.824 10.896C123.106 10.176 123.501 9.55733 124.008 9.04C124.514 8.52267 125.12 8.12267 125.824 7.84C126.533 7.552 127.314 7.408 128.168 7.408C129.01 7.408 129.736 7.53867 130.344 7.8C130.957 8.06133 131.501 8.416 131.976 8.864L131.472 9.576C131.434 9.62933 131.392 9.67467 131.344 9.712C131.296 9.744 131.226 9.76 131.136 9.76C131.066 9.76 130.992 9.736 130.911 9.688C130.837 9.63467 130.746 9.57067 130.64 9.496C130.533 9.42133 130.408 9.34133 130.264 9.256C130.12 9.17067 129.949 9.09067 129.752 9.016C129.554 8.94133 129.325 8.88 129.064 8.832C128.802 8.77867 128.501 8.752 128.16 8.752C127.546 8.752 126.984 8.85867 126.472 9.072C125.965 9.28 125.528 9.57867 125.16 9.968C124.792 10.3573 124.504 10.832 124.296 11.392C124.093 11.952 123.992 12.5787 123.992 13.272C123.992 13.9867 124.093 14.624 124.296 15.184C124.504 15.744 124.784 16.2187 125.136 16.608C125.493 16.992 125.914 17.2853 126.4 17.488C126.885 17.6907 127.408 17.792 127.968 17.792C128.309 17.792 128.616 17.7733 128.888 17.736C129.16 17.6933 129.41 17.6293 129.64 17.544C129.874 17.4587 130.09 17.352 130.288 17.224C130.49 17.0907 130.693 16.9333 130.896 16.752C130.986 16.672 131.074 16.632 131.16 16.632ZM132.705 7.536H133.945C134.083 7.536 134.195 7.57067 134.281 7.64C134.366 7.70933 134.43 7.79733 134.473 7.904L137.713 15.992C137.787 16.1733 137.854 16.3707 137.913 16.584C137.977 16.7973 138.038 17.0187 138.097 17.248C138.145 17.0187 138.195 16.7973 138.249 16.584C138.307 16.3707 138.374 16.1733 138.449 15.992L141.673 7.904C141.71 7.81333 141.774 7.73067 141.865 7.656C141.955 7.576 142.067 7.536 142.201 7.536H143.449L138.777 19H137.377L132.705 7.536ZM146.738 12.096V10.52C146.738 10.4187 146.744 10.3227 146.754 10.232C146.77 10.1413 146.797 10.0533 146.834 9.968C146.728 10.1013 146.586 10.2213 146.41 10.328L145.034 11.12L144.682 10.52L146.058 9.72C146.25 9.608 146.445 9.544 146.642 9.528C146.536 9.51733 146.434 9.49867 146.338 9.472C146.248 9.44 146.154 9.392 146.058 9.328L144.674 8.52L145.026 7.92L146.41 8.72C146.597 8.82667 146.749 8.96533 146.866 9.136C146.818 9.04 146.784 8.944 146.762 8.848C146.746 8.74667 146.738 8.64267 146.738 8.536V6.952H147.442V8.528C147.442 8.74667 147.405 8.93867 147.33 9.104C147.389 9.024 147.453 8.95467 147.522 8.896C147.597 8.83733 147.68 8.77867 147.77 8.72L149.146 7.928L149.498 8.528L148.122 9.328C148.032 9.38667 147.941 9.432 147.85 9.464C147.765 9.496 147.674 9.51733 147.578 9.528C147.674 9.53867 147.765 9.56 147.85 9.592C147.941 9.61867 148.032 9.66133 148.122 9.72L149.506 10.528L149.154 11.128L147.77 10.328C147.674 10.2693 147.589 10.2107 147.514 10.152C147.44 10.0933 147.373 10.0213 147.314 9.936C147.4 10.112 147.442 10.304 147.442 10.512V12.096H146.738Z" fill="#424551"/>
<defs>
<clipPath id="clip0_1835_2586">
<rect width="24" height="24" fill="white" transform="translate(0 1)"/>
</clipPath>
</defs>
</svg>
