<svg width="1920" height="984" viewBox="0 0 1920 984" fill="none" xmlns="http://www.w3.org/2000/svg">
<rect width="1920" height="984" fill="#F4F5F7"/>
<g opacity="0.3">
<path d="M175.822 636.09C175.822 643.541 173.028 650.992 167.368 656.652L-45.5668 869.587C-56.887 880.907 -75.3003 880.907 -86.6205 869.587C-92.1373 864.07 -95.1465 856.762 -95.1465 849.024C-95.1465 841.286 -92.1373 833.978 -86.6205 828.462L126.314 615.527C131.831 610.01 139.067 607.001 146.877 607.001C154.615 607.001 161.923 610.01 167.44 615.527C173.028 621.259 175.822 628.638 175.822 636.09ZM-93.7135 849.024C-93.7135 856.404 -90.8477 863.354 -85.6174 868.512C-74.8704 879.259 -57.3169 879.259 -46.5699 868.512L166.365 655.578C177.112 644.831 177.112 627.277 166.365 616.53C161.135 611.3 154.185 608.434 146.877 608.434C139.497 608.434 132.548 611.3 127.389 616.53L-85.6174 829.536C-90.8477 834.695 -93.7135 841.645 -93.7135 849.024Z" fill="#00F0B5"/>
<path d="M160.969 706.012C160.969 713.464 158.175 720.915 152.514 726.575L-60.4203 939.51C-71.7405 950.83 -90.1538 950.83 -101.474 939.51C-106.991 933.993 -110 926.685 -110 918.947C-110 911.209 -106.991 903.901 -101.474 898.384L111.461 685.45C116.978 679.933 124.214 676.924 132.023 676.924C139.761 676.924 147.069 679.933 152.586 685.45C158.175 691.182 160.969 698.561 160.969 706.012ZM-108.567 918.947C-108.567 926.327 -105.701 933.277 -100.471 938.435C-89.7239 949.182 -72.1704 949.182 -61.4234 938.435L151.511 725.5C162.258 714.753 162.258 697.2 151.511 686.453C146.281 681.223 139.331 678.357 132.023 678.357C124.644 678.357 117.694 681.223 112.535 686.453L-100.471 899.459C-105.701 904.618 -108.567 911.568 -108.567 918.947Z" fill="#00F0B5"/>
</g>
<g opacity="0.4">
<path d="M1774.65 604.78C1767.92 599.675 1760.91 594.542 1753.79 589.329C1730.79 572.497 1706.66 554.84 1687.45 534.646C1662.31 508.219 1645.68 477.53 1651.08 438.793C1656.33 401.192 1683.16 379.631 1715.57 360.746C1723.67 356.026 1732.11 351.479 1740.64 346.891L1741.25 346.564C1749.58 342.084 1757.99 337.56 1766.23 332.801C1783.12 323.053 1799.36 312.303 1812.86 298.874C1827.66 284.153 1839.76 265.609 1850.77 246.012C1856.28 236.212 1861.53 226.142 1866.7 216.149C1867.04 215.492 1867.38 214.836 1867.72 214.18C1872.56 204.853 1877.34 195.614 1882.25 186.736C1903.29 148.683 1926.47 117.498 1964.75 114.587C2005.61 111.479 2045.11 131.211 2076.6 162.33C2108.09 193.446 2131.53 235.898 2140.28 278.102C2147.82 314.493 2132.06 346.718 2110.27 378.779C2103.69 388.456 2096.59 398.093 2089.41 407.82C2084.69 414.217 2079.95 420.652 2075.3 427.163C2063.62 443.557 2052.61 460.391 2044.5 478.147C2036.73 495.174 2031.55 514.026 2027.15 533.173C2025.41 540.764 2023.79 548.394 2022.18 555.976C2019.73 567.544 2017.3 579.002 2014.49 590.045C2005.18 626.594 1991.76 658.217 1959.87 673.162C1926.67 688.719 1894.3 682.214 1863.24 666.502C1837.91 653.692 1813.51 634.798 1790.3 616.822C1785.02 612.733 1779.8 608.692 1774.65 604.78Z" stroke="#00F0B5"/>
<path d="M1800.23 556.673C1794.93 552.65 1789.41 548.607 1783.8 544.502C1765.69 531.25 1746.71 517.356 1731.59 501.464C1711.81 480.67 1698.73 456.537 1702.98 426.082C1707.11 396.529 1728.19 379.575 1753.71 364.709C1760.08 360.995 1766.72 357.415 1773.44 353.802L1773.92 353.545C1780.48 350.018 1787.1 346.455 1793.59 342.707C1806.9 335.03 1819.69 326.561 1830.33 315.978C1841.99 304.378 1851.52 289.767 1860.2 274.334C1864.53 266.616 1868.66 258.686 1872.74 250.819C1873.01 250.301 1873.28 249.785 1873.54 249.268C1877.35 241.924 1881.11 234.652 1884.98 227.663C1901.55 197.7 1919.78 173.2 1949.85 170.912C1981.98 168.469 2013.05 183.984 2037.83 208.472C2062.61 232.958 2081.06 266.364 2087.94 299.572C2093.86 328.179 2081.48 353.519 2064.33 378.758C2059.15 386.376 2053.56 393.96 2047.91 401.617C2044.19 406.653 2040.46 411.721 2036.8 416.851C2027.59 429.76 2018.93 443.021 2012.54 457.01C2006.41 470.426 2002.33 485.278 1998.87 500.355C1997.5 506.336 1996.22 512.344 1994.95 518.315C1993.02 527.42 1991.11 536.437 1988.9 545.13C1981.57 573.904 1971.01 598.757 1945.95 610.501C1919.86 622.73 1894.41 617.621 1869.96 605.258C1850.03 595.178 1830.84 580.31 1812.56 566.156C1808.4 562.937 1804.29 559.754 1800.23 556.673Z" stroke="#00F0B5"/>
<path d="M1818.71 521.913C1814.44 518.674 1809.99 515.418 1805.48 512.113C1790.91 501.449 1775.64 490.273 1763.47 477.489C1747.57 460.765 1737.06 441.369 1740.48 416.897C1743.79 393.159 1760.73 379.535 1781.25 367.573C1786.38 364.584 1791.73 361.704 1797.13 358.796L1797.52 358.589C1802.8 355.75 1808.13 352.882 1813.36 349.865C1824.07 343.684 1834.37 336.863 1842.94 328.336C1852.34 318.99 1860.01 307.221 1867 294.797C1870.49 288.584 1873.81 282.2 1877.1 275.868C1877.31 275.452 1877.53 275.035 1877.74 274.62C1880.8 268.709 1883.84 262.857 1886.95 257.233C1900.28 233.115 1914.93 213.445 1939.07 211.609C1964.9 209.645 1989.88 222.114 2009.81 241.811C2029.74 261.505 2044.58 288.376 2050.11 315.084C2054.87 338.068 2044.93 358.433 2031.13 378.743C2026.96 384.873 2022.46 390.974 2017.92 397.135C2014.93 401.188 2011.92 405.268 2008.97 409.4C2001.56 419.791 1994.58 430.47 1989.43 441.738C1984.5 452.545 1981.21 464.506 1978.43 476.643C1977.32 481.46 1976.3 486.298 1975.28 491.103C1973.72 498.43 1972.18 505.682 1970.4 512.678C1964.5 535.834 1956.02 555.795 1935.89 565.227C1914.93 575.052 1894.48 570.952 1874.82 561.008C1858.79 552.9 1843.35 540.94 1828.64 529.549C1825.29 526.957 1821.98 524.395 1818.71 521.913Z" stroke="#00F0B5"/>
</g>
</svg>
