<svg width="736" height="189" viewBox="0 0 736 189" fill="none" xmlns="http://www.w3.org/2000/svg">
<g clip-path="url(#clip0_2199_175)">
<g clip-path="url(#clip1_2199_175)">
<circle cx="662" cy="74" r="71" stroke="#03CEA4" stroke-width="6"/>
<path d="M624.095 82.416H628.575V70.656C628.575 70.08 628.591 69.4773 628.623 68.848L625.983 71.04C625.812 71.1787 625.641 71.28 625.471 71.344C625.3 71.3973 625.135 71.424 624.975 71.424C624.697 71.424 624.447 71.3653 624.223 71.248C624.009 71.12 623.849 70.9867 623.743 70.848L622.174 68.768L629.439 62.672H633.535V82.416H637.375V86H624.095V82.416ZM656.545 74.336C656.545 76.3733 656.326 78.1387 655.889 79.632C655.452 81.1253 654.844 82.3627 654.065 83.344C653.297 84.3253 652.38 85.056 651.313 85.536C650.257 86.016 649.11 86.256 647.873 86.256C646.636 86.256 645.489 86.016 644.433 85.536C643.388 85.056 642.481 84.3253 641.713 83.344C640.945 82.3627 640.342 81.1253 639.905 79.632C639.478 78.1387 639.265 76.3733 639.265 74.336C639.265 72.2987 639.478 70.5333 639.905 69.04C640.342 67.5467 640.945 66.3093 641.713 65.328C642.481 64.3467 643.388 63.6213 644.433 63.152C645.489 62.672 646.636 62.432 647.873 62.432C649.11 62.432 650.257 62.672 651.313 63.152C652.38 63.6213 653.297 64.3467 654.065 65.328C654.844 66.3093 655.452 67.5467 655.889 69.04C656.326 70.5333 656.545 72.2987 656.545 74.336ZM651.425 74.336C651.425 72.7253 651.324 71.408 651.121 70.384C650.918 69.3493 650.646 68.5387 650.305 67.952C649.974 67.3653 649.596 66.9653 649.169 66.752C648.742 66.528 648.31 66.416 647.873 66.416C647.436 66.416 647.004 66.528 646.577 66.752C646.161 66.9653 645.788 67.3653 645.457 67.952C645.137 68.5387 644.876 69.3493 644.673 70.384C644.481 71.408 644.385 72.7253 644.385 74.336C644.385 75.9573 644.481 77.28 644.673 78.304C644.876 79.328 645.137 80.1387 645.457 80.736C645.788 81.3227 646.161 81.728 646.577 81.952C647.004 82.1653 647.436 82.272 647.873 82.272C648.31 82.272 648.742 82.1653 649.169 81.952C649.596 81.728 649.974 81.3227 650.305 80.736C650.646 80.1387 650.918 79.328 651.121 78.304C651.324 77.28 651.425 75.9573 651.425 74.336ZM675.108 74.336C675.108 76.3733 674.889 78.1387 674.451 79.632C674.014 81.1253 673.406 82.3627 672.628 83.344C671.86 84.3253 670.942 85.056 669.876 85.536C668.82 86.016 667.673 86.256 666.436 86.256C665.198 86.256 664.052 86.016 662.996 85.536C661.95 85.056 661.044 84.3253 660.276 83.344C659.508 82.3627 658.905 81.1253 658.468 79.632C658.041 78.1387 657.828 76.3733 657.828 74.336C657.828 72.2987 658.041 70.5333 658.468 69.04C658.905 67.5467 659.508 66.3093 660.276 65.328C661.044 64.3467 661.95 63.6213 662.996 63.152C664.052 62.672 665.198 62.432 666.436 62.432C667.673 62.432 668.82 62.672 669.876 63.152C670.942 63.6213 671.86 64.3467 672.628 65.328C673.406 66.3093 674.014 67.5467 674.451 69.04C674.889 70.5333 675.108 72.2987 675.108 74.336ZM669.988 74.336C669.988 72.7253 669.886 71.408 669.684 70.384C669.481 69.3493 669.209 68.5387 668.868 67.952C668.537 67.3653 668.158 66.9653 667.732 66.752C667.305 66.528 666.873 66.416 666.436 66.416C665.998 66.416 665.566 66.528 665.14 66.752C664.724 66.9653 664.35 67.3653 664.02 67.952C663.7 68.5387 663.438 69.3493 663.236 70.384C663.044 71.408 662.948 72.7253 662.948 74.336C662.948 75.9573 663.044 77.28 663.236 78.304C663.438 79.328 663.7 80.1387 664.02 80.736C664.35 81.3227 664.724 81.728 665.14 81.952C665.566 82.1653 665.998 82.272 666.436 82.272C666.873 82.272 667.305 82.1653 667.732 81.952C668.158 81.728 668.537 81.3227 668.868 80.736C669.209 80.1387 669.481 79.328 669.684 78.304C669.886 77.28 669.988 75.9573 669.988 74.336ZM687.718 68.336C687.718 69.1893 687.563 69.968 687.254 70.672C686.945 71.376 686.534 71.984 686.022 72.496C685.51 72.9973 684.913 73.3867 684.23 73.664C683.558 73.9413 682.854 74.08 682.118 74.08C681.307 74.08 680.561 73.9413 679.878 73.664C679.206 73.3867 678.619 72.9973 678.118 72.496C677.627 71.984 677.243 71.376 676.966 70.672C676.689 69.968 676.55 69.1893 676.55 68.336C676.55 67.4507 676.689 66.6507 676.966 65.936C677.243 65.2107 677.627 64.592 678.118 64.08C678.619 63.568 679.206 63.1733 679.878 62.896C680.561 62.608 681.307 62.464 682.118 62.464C682.929 62.464 683.675 62.608 684.358 62.896C685.051 63.1733 685.643 63.568 686.134 64.08C686.635 64.592 687.025 65.2107 687.302 65.936C687.579 66.6507 687.718 67.4507 687.718 68.336ZM683.91 68.336C683.91 67.792 683.862 67.344 683.766 66.992C683.681 66.6293 683.558 66.3413 683.398 66.128C683.238 65.9147 683.046 65.7653 682.822 65.68C682.609 65.5947 682.374 65.552 682.118 65.552C681.862 65.552 681.627 65.5947 681.414 65.68C681.201 65.7653 681.019 65.9147 680.87 66.128C680.721 66.3413 680.603 66.6293 680.518 66.992C680.433 67.344 680.39 67.792 680.39 68.336C680.39 68.848 680.433 69.2747 680.518 69.616C680.603 69.9573 680.721 70.2293 680.87 70.432C681.019 70.6347 681.201 70.7787 681.414 70.864C681.627 70.9493 681.862 70.992 682.118 70.992C682.374 70.992 682.609 70.9493 682.822 70.864C683.046 70.7787 683.238 70.6347 683.398 70.432C683.558 70.2293 683.681 69.9573 683.766 69.616C683.862 69.2747 683.91 68.848 683.91 68.336ZM695.046 63.424C695.206 63.2427 695.403 63.0773 695.638 62.928C695.873 62.768 696.198 62.688 696.614 62.688H700.23L682.662 85.296C682.502 85.4987 682.299 85.6693 682.054 85.808C681.819 85.936 681.531 86 681.19 86H677.478L695.046 63.424ZM701.126 80.528C701.126 81.3813 700.971 82.1653 700.662 82.88C700.353 83.584 699.942 84.192 699.43 84.704C698.918 85.2053 698.321 85.5947 697.638 85.872C696.966 86.1493 696.262 86.288 695.526 86.288C694.715 86.288 693.969 86.1493 693.286 85.872C692.614 85.5947 692.027 85.2053 691.526 84.704C691.035 84.192 690.651 83.584 690.374 82.88C690.097 82.1653 689.958 81.3813 689.958 80.528C689.958 79.6427 690.097 78.8427 690.374 78.128C690.651 77.4027 691.035 76.784 691.526 76.272C692.027 75.76 692.614 75.3653 693.286 75.088C693.969 74.8 694.715 74.656 695.526 74.656C696.337 74.656 697.083 74.8 697.766 75.088C698.459 75.3653 699.051 75.76 699.542 76.272C700.043 76.784 700.433 77.4027 700.71 78.128C700.987 78.8427 701.126 79.6427 701.126 80.528ZM697.318 80.528C697.318 79.9947 697.27 79.552 697.174 79.2C697.089 78.8373 696.966 78.5493 696.806 78.336C696.646 78.1227 696.454 77.9733 696.23 77.888C696.017 77.8027 695.782 77.76 695.526 77.76C695.27 77.76 695.035 77.8027 694.822 77.888C694.609 77.9733 694.427 78.1227 694.278 78.336C694.129 78.5493 694.011 78.8373 693.926 79.2C693.841 79.552 693.798 79.9947 693.798 80.528C693.798 81.04 693.841 81.4667 693.926 81.808C694.011 82.1493 694.129 82.4213 694.278 82.624C694.427 82.8267 694.609 82.9707 694.822 83.056C695.035 83.1413 695.27 83.184 695.526 83.184C695.782 83.184 696.017 83.1413 696.23 83.056C696.454 82.9707 696.646 82.8267 696.806 82.624C696.966 82.4213 697.089 82.1493 697.174 81.808C697.27 81.4667 697.318 81.04 697.318 80.528Z" fill="#1E212C"/>
</g>
<path d="M629.885 184H628.52V179.436H623.116V184H621.751V173.969H623.116V178.442H628.52V173.969H629.885V184ZM637.345 184H636.792C636.671 184 636.573 183.981 636.498 183.944C636.424 183.907 636.375 183.827 636.351 183.706L636.211 183.048C636.025 183.216 635.843 183.368 635.665 183.503C635.488 183.634 635.301 183.746 635.105 183.839C634.909 183.928 634.699 183.995 634.475 184.042C634.256 184.089 634.011 184.112 633.74 184.112C633.465 184.112 633.206 184.075 632.963 184C632.725 183.921 632.518 183.804 632.34 183.65C632.163 183.496 632.021 183.302 631.913 183.069C631.811 182.831 631.759 182.551 631.759 182.229C631.759 181.949 631.836 181.681 631.99 181.424C632.144 181.163 632.392 180.932 632.732 180.731C633.078 180.53 633.528 180.367 634.083 180.241C634.639 180.11 635.318 180.036 636.12 180.017V179.464C636.12 178.913 636.001 178.498 635.763 178.218C635.53 177.933 635.182 177.791 634.72 177.791C634.417 177.791 634.16 177.831 633.95 177.91C633.745 177.985 633.565 178.071 633.411 178.169C633.262 178.262 633.131 178.349 633.019 178.428C632.912 178.503 632.805 178.54 632.697 178.54C632.613 178.54 632.539 178.519 632.473 178.477C632.413 178.43 632.364 178.374 632.326 178.309L632.102 177.91C632.494 177.532 632.917 177.25 633.369 177.063C633.822 176.876 634.324 176.783 634.874 176.783C635.271 176.783 635.623 176.848 635.931 176.979C636.239 177.11 636.498 177.292 636.708 177.525C636.918 177.758 637.077 178.041 637.184 178.372C637.292 178.703 637.345 179.067 637.345 179.464V184ZM634.111 183.237C634.331 183.237 634.531 183.216 634.713 183.174C634.895 183.127 635.066 183.064 635.224 182.985C635.388 182.901 635.542 182.801 635.686 182.684C635.836 182.567 635.98 182.434 636.12 182.285V180.808C635.546 180.827 635.059 180.873 634.657 180.948C634.256 181.018 633.929 181.111 633.677 181.228C633.425 181.345 633.241 181.482 633.124 181.641C633.012 181.8 632.956 181.977 632.956 182.173C632.956 182.36 632.987 182.521 633.047 182.656C633.108 182.791 633.19 182.903 633.292 182.992C633.395 183.076 633.516 183.139 633.656 183.181C633.796 183.218 633.948 183.237 634.111 183.237ZM639.233 186.401V176.909H639.975C640.152 176.909 640.264 176.995 640.311 177.168L640.416 178.008C640.719 177.639 641.065 177.343 641.452 177.119C641.844 176.895 642.294 176.783 642.803 176.783C643.209 176.783 643.578 176.862 643.909 177.021C644.24 177.175 644.523 177.406 644.756 177.714C644.989 178.017 645.169 178.395 645.295 178.848C645.421 179.301 645.484 179.821 645.484 180.409C645.484 180.932 645.414 181.419 645.274 181.872C645.134 182.32 644.933 182.71 644.672 183.041C644.411 183.368 644.089 183.627 643.706 183.818C643.328 184.005 642.901 184.098 642.425 184.098C641.986 184.098 641.611 184.026 641.298 183.881C640.99 183.736 640.717 183.531 640.479 183.265V186.401H639.233ZM642.39 177.791C641.984 177.791 641.627 177.884 641.319 178.071C641.016 178.258 640.736 178.521 640.479 178.862V182.292C640.708 182.6 640.957 182.817 641.228 182.943C641.503 183.069 641.809 183.132 642.145 183.132C642.803 183.132 643.309 182.896 643.664 182.425C644.019 181.954 644.196 181.282 644.196 180.409C644.196 179.947 644.154 179.55 644.07 179.219C643.991 178.888 643.874 178.617 643.72 178.407C643.566 178.192 643.377 178.036 643.153 177.938C642.929 177.84 642.675 177.791 642.39 177.791ZM646.958 186.401V176.909H647.7C647.877 176.909 647.989 176.995 648.036 177.168L648.141 178.008C648.444 177.639 648.789 177.343 649.177 177.119C649.569 176.895 650.019 176.783 650.528 176.783C650.934 176.783 651.302 176.862 651.634 177.021C651.965 177.175 652.247 177.406 652.481 177.714C652.714 178.017 652.894 178.395 653.02 178.848C653.146 179.301 653.209 179.821 653.209 180.409C653.209 180.932 653.139 181.419 652.999 181.872C652.859 182.32 652.658 182.71 652.397 183.041C652.135 183.368 651.813 183.627 651.431 183.818C651.053 184.005 650.626 184.098 650.15 184.098C649.711 184.098 649.335 184.026 649.023 183.881C648.715 183.736 648.442 183.531 648.204 183.265V186.401H646.958ZM650.115 177.791C649.709 177.791 649.352 177.884 649.044 178.071C648.74 178.258 648.46 178.521 648.204 178.862V182.292C648.432 182.6 648.682 182.817 648.953 182.943C649.228 183.069 649.534 183.132 649.87 183.132C650.528 183.132 651.034 182.896 651.389 182.425C651.743 181.954 651.921 181.282 651.921 180.409C651.921 179.947 651.879 179.55 651.795 179.219C651.715 178.888 651.599 178.617 651.445 178.407C651.291 178.192 651.102 178.036 650.878 177.938C650.654 177.84 650.399 177.791 650.115 177.791ZM656.583 186.093C656.541 186.186 656.488 186.261 656.422 186.317C656.362 186.373 656.266 186.401 656.135 186.401H655.211L656.506 183.587L653.58 176.909H654.658C654.766 176.909 654.85 176.937 654.91 176.993C654.971 177.044 655.015 177.103 655.043 177.168L656.94 181.634C656.982 181.737 657.017 181.839 657.045 181.942C657.078 182.045 657.106 182.15 657.129 182.257C657.162 182.15 657.195 182.045 657.227 181.942C657.26 181.839 657.297 181.734 657.339 181.627L659.18 177.168C659.208 177.093 659.255 177.033 659.32 176.986C659.39 176.935 659.465 176.909 659.544 176.909H660.538L656.583 186.093ZM669.213 178.169C669.175 178.22 669.138 178.26 669.101 178.288C669.063 178.316 669.01 178.33 668.94 178.33C668.87 178.33 668.793 178.302 668.709 178.246C668.629 178.185 668.527 178.12 668.401 178.05C668.275 177.98 668.121 177.917 667.939 177.861C667.761 177.8 667.542 177.77 667.281 177.77C666.935 177.77 666.63 177.833 666.364 177.959C666.098 178.08 665.874 178.258 665.692 178.491C665.514 178.724 665.379 179.007 665.286 179.338C665.197 179.669 665.153 180.04 665.153 180.451C665.153 180.88 665.202 181.263 665.3 181.599C665.398 181.93 665.535 182.21 665.713 182.439C665.89 182.663 666.105 182.836 666.357 182.957C666.613 183.074 666.9 183.132 667.218 183.132C667.521 183.132 667.771 183.097 667.967 183.027C668.163 182.952 668.326 182.871 668.457 182.782C668.587 182.693 668.695 182.614 668.779 182.544C668.863 182.469 668.947 182.432 669.031 182.432C669.138 182.432 669.217 182.472 669.269 182.551L669.619 183.006C669.311 183.384 668.926 183.662 668.464 183.839C668.002 184.012 667.514 184.098 667.001 184.098C666.557 184.098 666.144 184.016 665.762 183.853C665.384 183.69 665.055 183.454 664.775 183.146C664.495 182.833 664.273 182.451 664.11 181.998C663.951 181.545 663.872 181.03 663.872 180.451C663.872 179.924 663.944 179.436 664.089 178.988C664.238 178.54 664.453 178.155 664.733 177.833C665.017 177.506 665.367 177.252 665.783 177.07C666.198 176.888 666.674 176.797 667.211 176.797C667.705 176.797 668.144 176.879 668.527 177.042C668.909 177.201 669.248 177.427 669.542 177.721L669.213 178.169ZM672.297 173.689V184H671.051V173.689H672.297ZM675.879 176.909V184H674.633V176.909H675.879ZM676.159 174.683C676.159 174.804 676.133 174.919 676.082 175.026C676.035 175.129 675.97 175.222 675.886 175.306C675.806 175.385 675.713 175.448 675.606 175.495C675.498 175.542 675.384 175.565 675.263 175.565C675.141 175.565 675.027 175.542 674.92 175.495C674.817 175.448 674.724 175.385 674.64 175.306C674.56 175.222 674.497 175.129 674.451 175.026C674.404 174.919 674.381 174.804 674.381 174.683C674.381 174.562 674.404 174.447 674.451 174.34C674.497 174.228 674.56 174.132 674.64 174.053C674.724 173.969 674.817 173.904 674.92 173.857C675.027 173.81 675.141 173.787 675.263 173.787C675.384 173.787 675.498 173.81 675.606 173.857C675.713 173.904 675.806 173.969 675.886 174.053C675.97 174.132 676.035 174.228 676.082 174.34C676.133 174.447 676.159 174.562 676.159 174.683ZM680.882 176.797C681.306 176.797 681.698 176.869 682.058 177.014C682.417 177.154 682.727 177.359 682.989 177.63C683.25 177.896 683.453 178.227 683.598 178.624C683.747 179.016 683.822 179.464 683.822 179.968C683.822 180.164 683.801 180.295 683.759 180.36C683.717 180.425 683.637 180.458 683.521 180.458H678.803C678.812 180.906 678.873 181.296 678.985 181.627C679.097 181.958 679.251 182.236 679.447 182.46C679.643 182.679 679.876 182.845 680.147 182.957C680.417 183.064 680.721 183.118 681.057 183.118C681.369 183.118 681.638 183.083 681.862 183.013C682.09 182.938 682.286 182.859 682.45 182.775C682.613 182.691 682.748 182.614 682.856 182.544C682.968 182.469 683.063 182.432 683.143 182.432C683.245 182.432 683.325 182.472 683.381 182.551L683.731 183.006C683.577 183.193 683.392 183.356 683.178 183.496C682.963 183.631 682.732 183.743 682.485 183.832C682.242 183.921 681.99 183.986 681.729 184.028C681.467 184.075 681.208 184.098 680.952 184.098C680.462 184.098 680.009 184.016 679.594 183.853C679.183 183.685 678.826 183.442 678.523 183.125C678.224 182.803 677.991 182.406 677.823 181.935C677.655 181.464 677.571 180.922 677.571 180.311C677.571 179.816 677.645 179.354 677.795 178.925C677.949 178.496 678.168 178.125 678.453 177.812C678.737 177.495 679.085 177.247 679.496 177.07C679.906 176.888 680.368 176.797 680.882 176.797ZM680.91 177.714C680.308 177.714 679.834 177.889 679.489 178.239C679.143 178.584 678.929 179.065 678.845 179.681H682.702C682.702 179.392 682.662 179.128 682.583 178.89C682.503 178.647 682.387 178.44 682.233 178.267C682.079 178.09 681.89 177.954 681.666 177.861C681.446 177.763 681.194 177.714 680.91 177.714ZM685.417 184V176.909H686.159C686.336 176.909 686.448 176.995 686.495 177.168L686.593 177.938C686.901 177.597 687.244 177.322 687.622 177.112C688.004 176.902 688.445 176.797 688.945 176.797C689.332 176.797 689.673 176.862 689.967 176.993C690.265 177.119 690.513 177.301 690.709 177.539C690.909 177.772 691.061 178.055 691.164 178.386C691.266 178.717 691.318 179.084 691.318 179.485V184H690.072V179.485C690.072 178.948 689.948 178.533 689.701 178.239C689.458 177.94 689.085 177.791 688.581 177.791C688.212 177.791 687.867 177.88 687.545 178.057C687.227 178.234 686.933 178.475 686.663 178.778V184H685.417ZM695.345 184.112C694.785 184.112 694.353 183.956 694.05 183.643C693.751 183.33 693.602 182.88 693.602 182.292V177.952H692.748C692.673 177.952 692.61 177.931 692.559 177.889C692.507 177.842 692.482 177.772 692.482 177.679V177.182L693.644 177.035L693.931 174.844C693.94 174.774 693.97 174.718 694.022 174.676C694.073 174.629 694.138 174.606 694.218 174.606H694.848V177.049H696.878V177.952H694.848V182.208C694.848 182.507 694.92 182.728 695.065 182.873C695.209 183.018 695.396 183.09 695.625 183.09C695.755 183.09 695.867 183.074 695.961 183.041C696.059 183.004 696.143 182.964 696.213 182.922C696.283 182.88 696.341 182.843 696.388 182.81C696.439 182.773 696.483 182.754 696.521 182.754C696.586 182.754 696.644 182.794 696.696 182.873L697.06 183.468C696.845 183.669 696.586 183.827 696.283 183.944C695.979 184.056 695.667 184.112 695.345 184.112ZM702.478 178.078C702.422 178.181 702.336 178.232 702.219 178.232C702.149 178.232 702.07 178.206 701.981 178.155C701.893 178.104 701.783 178.048 701.652 177.987C701.526 177.922 701.375 177.863 701.197 177.812C701.02 177.756 700.81 177.728 700.567 177.728C700.357 177.728 700.168 177.756 700 177.812C699.832 177.863 699.688 177.936 699.566 178.029C699.45 178.122 699.359 178.232 699.293 178.358C699.233 178.479 699.202 178.612 699.202 178.757C699.202 178.939 699.254 179.091 699.356 179.212C699.464 179.333 699.604 179.438 699.776 179.527C699.949 179.616 700.145 179.695 700.364 179.765C700.584 179.83 700.808 179.903 701.036 179.982C701.27 180.057 701.496 180.141 701.715 180.234C701.935 180.327 702.131 180.444 702.303 180.584C702.476 180.724 702.614 180.897 702.716 181.102C702.824 181.303 702.877 181.545 702.877 181.83C702.877 182.157 702.819 182.46 702.702 182.74C702.586 183.015 702.413 183.256 702.184 183.461C701.956 183.662 701.676 183.82 701.344 183.937C701.013 184.054 700.63 184.112 700.196 184.112C699.702 184.112 699.254 184.033 698.852 183.874C698.451 183.711 698.11 183.503 697.83 183.251L698.124 182.775C698.162 182.714 698.206 182.668 698.257 182.635C698.309 182.602 698.376 182.586 698.46 182.586C698.544 182.586 698.633 182.619 698.726 182.684C698.82 182.749 698.932 182.822 699.062 182.901C699.198 182.98 699.359 183.053 699.545 183.118C699.737 183.183 699.975 183.216 700.259 183.216C700.502 183.216 700.714 183.186 700.896 183.125C701.078 183.06 701.23 182.973 701.351 182.866C701.473 182.759 701.561 182.635 701.617 182.495C701.678 182.355 701.708 182.206 701.708 182.047C701.708 181.851 701.655 181.69 701.547 181.564C701.445 181.433 701.307 181.324 701.134 181.235C700.962 181.142 700.763 181.062 700.539 180.997C700.32 180.927 700.094 180.855 699.86 180.78C699.632 180.705 699.405 180.621 699.181 180.528C698.962 180.43 698.766 180.309 698.593 180.164C698.421 180.019 698.281 179.842 698.173 179.632C698.071 179.417 698.019 179.158 698.019 178.855C698.019 178.584 698.075 178.325 698.187 178.078C698.299 177.826 698.463 177.607 698.677 177.42C698.892 177.229 699.156 177.077 699.468 176.965C699.781 176.853 700.138 176.797 700.539 176.797C701.006 176.797 701.424 176.872 701.792 177.021C702.166 177.166 702.488 177.366 702.758 177.623L702.478 178.078Z" fill="#424551"/>
</g>
<g clip-path="url(#clip2_2199_175)">
<g clip-path="url(#clip3_2199_175)">
<circle opacity="0.3" cx="466" cy="74" r="71" stroke="#5A87FC" stroke-width="6"/>
<path d="M466 142C503.555 142 534 111.555 534 74C534 36.4446 503.555 6 466 6V0C506.869 0 540 33.1309 540 74C540 114.869 506.869 148 466 148C425.131 148 392 114.869 392 74C392 62.1418 394.789 50.935 399.747 41L405.207 43.5C400.596 52.673 398 63.0333 398 74C398 111.555 428.445 142 466 142Z" fill="#5A87FC"/>
<path d="M444.343 64.736C444.343 65.0773 444.29 65.3867 444.183 65.664C444.076 65.9413 443.906 66.1867 443.671 66.4C443.447 66.6027 443.148 66.7627 442.775 66.88C442.402 66.9867 441.954 67.04 441.431 67.04H435.863L435.207 70.896C435.644 70.8213 436.066 70.768 436.471 70.736C436.876 70.6933 437.271 70.672 437.655 70.672C438.882 70.672 439.964 70.8587 440.903 71.232C441.842 71.6053 442.631 72.1173 443.271 72.768C443.911 73.408 444.391 74.1653 444.711 75.04C445.042 75.904 445.207 76.832 445.207 77.824C445.207 79.072 444.983 80.2133 444.535 81.248C444.098 82.272 443.484 83.1573 442.695 83.904C441.906 84.6507 440.962 85.232 439.863 85.648C438.775 86.0533 437.58 86.256 436.279 86.256C435.522 86.256 434.796 86.176 434.103 86.016C433.42 85.856 432.775 85.6427 432.167 85.376C431.57 85.0987 431.015 84.784 430.503 84.432C429.991 84.0693 429.527 83.6853 429.111 83.28L430.647 81.232C430.807 81.0187 430.994 80.8587 431.207 80.752C431.42 80.6347 431.65 80.576 431.895 80.576C432.215 80.576 432.514 80.6667 432.791 80.848C433.079 81.0187 433.388 81.2107 433.719 81.424C434.06 81.6267 434.455 81.8133 434.903 81.984C435.351 82.1547 435.906 82.24 436.567 82.24C437.228 82.24 437.794 82.1333 438.263 81.92C438.732 81.696 439.111 81.3973 439.399 81.024C439.698 80.64 439.911 80.1973 440.039 79.696C440.178 79.184 440.247 78.64 440.247 78.064C440.247 76.9333 439.927 76.0747 439.287 75.488C438.647 74.8907 437.74 74.592 436.567 74.592C435.522 74.592 434.498 74.7893 433.495 75.184L430.423 74.352L432.407 62.688H444.343V64.736ZM462.554 76.944H464.954V79.728C464.954 79.9733 464.868 80.1867 464.698 80.368C464.538 80.5493 464.303 80.64 463.994 80.64H462.554V86H458.234V80.64H448.858C448.548 80.64 448.266 80.544 448.01 80.352C447.764 80.16 447.61 79.92 447.546 79.632L447.034 77.184L457.818 62.688H462.554V76.944ZM458.234 70.864C458.234 70.4907 458.244 70.0907 458.266 69.664C458.298 69.2267 458.34 68.7787 458.394 68.32L452.234 76.944H458.234V70.864ZM483.42 74.336C483.42 76.3733 483.201 78.1387 482.764 79.632C482.327 81.1253 481.719 82.3627 480.94 83.344C480.172 84.3253 479.255 85.056 478.188 85.536C477.132 86.016 475.985 86.256 474.748 86.256C473.511 86.256 472.364 86.016 471.308 85.536C470.263 85.056 469.356 84.3253 468.588 83.344C467.82 82.3627 467.217 81.1253 466.78 79.632C466.353 78.1387 466.14 76.3733 466.14 74.336C466.14 72.2987 466.353 70.5333 466.78 69.04C467.217 67.5467 467.82 66.3093 468.588 65.328C469.356 64.3467 470.263 63.6213 471.308 63.152C472.364 62.672 473.511 62.432 474.748 62.432C475.985 62.432 477.132 62.672 478.188 63.152C479.255 63.6213 480.172 64.3467 480.94 65.328C481.719 66.3093 482.327 67.5467 482.764 69.04C483.201 70.5333 483.42 72.2987 483.42 74.336ZM478.3 74.336C478.3 72.7253 478.199 71.408 477.996 70.384C477.793 69.3493 477.521 68.5387 477.18 67.952C476.849 67.3653 476.471 66.9653 476.044 66.752C475.617 66.528 475.185 66.416 474.748 66.416C474.311 66.416 473.879 66.528 473.452 66.752C473.036 66.9653 472.663 67.3653 472.332 67.952C472.012 68.5387 471.751 69.3493 471.548 70.384C471.356 71.408 471.26 72.7253 471.26 74.336C471.26 75.9573 471.356 77.28 471.548 78.304C471.751 79.328 472.012 80.1387 472.332 80.736C472.663 81.3227 473.036 81.728 473.452 81.952C473.879 82.1653 474.311 82.272 474.748 82.272C475.185 82.272 475.617 82.1653 476.044 81.952C476.471 81.728 476.849 81.3227 477.18 80.736C477.521 80.1387 477.793 79.328 477.996 78.304C478.199 77.28 478.3 75.9573 478.3 74.336ZM495.327 67.136V73.472H501.247V77.024H495.327V83.392H491.295V77.024H485.407V73.472H491.295V67.136H495.327Z" fill="#1E212C"/>
</g>
<path d="M443.355 180.248V184H442.004V173.969H444.965C445.599 173.969 446.15 174.044 446.617 174.193C447.088 174.338 447.478 174.545 447.786 174.816C448.094 175.087 448.322 175.413 448.472 175.796C448.626 176.179 448.703 176.606 448.703 177.077C448.703 177.544 448.621 177.971 448.458 178.358C448.294 178.745 448.054 179.079 447.737 179.359C447.424 179.639 447.034 179.858 446.568 180.017C446.101 180.171 445.567 180.248 444.965 180.248H443.355ZM443.355 179.17H444.965C445.352 179.17 445.693 179.119 445.987 179.016C446.285 178.913 446.535 178.771 446.736 178.589C446.936 178.402 447.088 178.181 447.191 177.924C447.293 177.667 447.345 177.385 447.345 177.077C447.345 176.438 447.146 175.938 446.75 175.579C446.358 175.22 445.763 175.04 444.965 175.04H443.355V179.17ZM450.226 184V176.909H450.94C451.075 176.909 451.169 176.935 451.22 176.986C451.271 177.037 451.306 177.126 451.325 177.252L451.409 178.358C451.652 177.863 451.95 177.478 452.305 177.203C452.664 176.923 453.084 176.783 453.565 176.783C453.761 176.783 453.938 176.806 454.097 176.853C454.256 176.895 454.403 176.956 454.538 177.035L454.377 177.966C454.344 178.083 454.272 178.141 454.16 178.141C454.095 178.141 453.994 178.12 453.859 178.078C453.724 178.031 453.535 178.008 453.292 178.008C452.858 178.008 452.494 178.134 452.2 178.386C451.911 178.638 451.668 179.004 451.472 179.485V184H450.226ZM458.743 176.797C459.261 176.797 459.727 176.883 460.143 177.056C460.563 177.229 460.917 177.474 461.207 177.791C461.501 178.108 461.725 178.493 461.879 178.946C462.037 179.394 462.117 179.896 462.117 180.451C462.117 181.011 462.037 181.515 461.879 181.963C461.725 182.411 461.501 182.794 461.207 183.111C460.917 183.428 460.563 183.673 460.143 183.846C459.727 184.014 459.261 184.098 458.743 184.098C458.225 184.098 457.756 184.014 457.336 183.846C456.92 183.673 456.566 183.428 456.272 183.111C455.978 182.794 455.751 182.411 455.593 181.963C455.434 181.515 455.355 181.011 455.355 180.451C455.355 179.896 455.434 179.394 455.593 178.946C455.751 178.493 455.978 178.108 456.272 177.791C456.566 177.474 456.92 177.229 457.336 177.056C457.756 176.883 458.225 176.797 458.743 176.797ZM458.743 183.125C459.443 183.125 459.965 182.892 460.311 182.425C460.656 181.954 460.829 181.298 460.829 180.458C460.829 179.613 460.656 178.955 460.311 178.484C459.965 178.013 459.443 177.777 458.743 177.777C458.388 177.777 458.08 177.838 457.819 177.959C457.557 178.08 457.338 178.255 457.161 178.484C456.988 178.713 456.857 178.995 456.769 179.331C456.685 179.662 456.643 180.038 456.643 180.458C456.643 180.878 456.685 181.254 456.769 181.585C456.857 181.916 456.988 182.196 457.161 182.425C457.338 182.649 457.557 182.822 457.819 182.943C458.08 183.064 458.388 183.125 458.743 183.125ZM465.038 176.909V184.525C465.038 184.81 465.001 185.073 464.926 185.316C464.851 185.563 464.732 185.778 464.569 185.96C464.41 186.142 464.203 186.284 463.946 186.387C463.694 186.494 463.391 186.548 463.036 186.548C462.882 186.548 462.742 186.536 462.616 186.513C462.49 186.49 462.364 186.455 462.238 186.408L462.294 185.736C462.303 185.675 462.324 185.636 462.357 185.617C462.39 185.603 462.441 185.596 462.511 185.596C462.548 185.596 462.588 185.596 462.63 185.596C462.672 185.601 462.723 185.603 462.784 185.603C463.148 185.603 463.407 185.517 463.561 185.344C463.715 185.176 463.792 184.903 463.792 184.525V176.909H465.038ZM465.318 174.683C465.318 174.804 465.292 174.919 465.241 175.026C465.194 175.129 465.129 175.222 465.045 175.306C464.966 175.385 464.872 175.448 464.765 175.495C464.658 175.542 464.543 175.565 464.422 175.565C464.301 175.565 464.186 175.542 464.079 175.495C463.976 175.448 463.883 175.385 463.799 175.306C463.72 175.222 463.657 175.129 463.61 175.026C463.563 174.919 463.54 174.804 463.54 174.683C463.54 174.562 463.563 174.447 463.61 174.34C463.657 174.228 463.72 174.132 463.799 174.053C463.883 173.969 463.976 173.904 464.079 173.857C464.186 173.81 464.301 173.787 464.422 173.787C464.543 173.787 464.658 173.81 464.765 173.857C464.872 173.904 464.966 173.969 465.045 174.053C465.129 174.132 465.194 174.228 465.241 174.34C465.292 174.447 465.318 174.562 465.318 174.683ZM470.014 176.797C470.438 176.797 470.83 176.869 471.19 177.014C471.549 177.154 471.859 177.359 472.121 177.63C472.382 177.896 472.585 178.227 472.73 178.624C472.879 179.016 472.954 179.464 472.954 179.968C472.954 180.164 472.933 180.295 472.891 180.36C472.849 180.425 472.769 180.458 472.653 180.458H467.935C467.944 180.906 468.005 181.296 468.117 181.627C468.229 181.958 468.383 182.236 468.579 182.46C468.775 182.679 469.008 182.845 469.279 182.957C469.549 183.064 469.853 183.118 470.189 183.118C470.501 183.118 470.77 183.083 470.994 183.013C471.222 182.938 471.418 182.859 471.582 182.775C471.745 182.691 471.88 182.614 471.988 182.544C472.1 182.469 472.195 182.432 472.275 182.432C472.377 182.432 472.457 182.472 472.513 182.551L472.863 183.006C472.709 183.193 472.524 183.356 472.31 183.496C472.095 183.631 471.864 183.743 471.617 183.832C471.374 183.921 471.122 183.986 470.861 184.028C470.599 184.075 470.34 184.098 470.084 184.098C469.594 184.098 469.141 184.016 468.726 183.853C468.315 183.685 467.958 183.442 467.655 183.125C467.356 182.803 467.123 182.406 466.955 181.935C466.787 181.464 466.703 180.922 466.703 180.311C466.703 179.816 466.777 179.354 466.927 178.925C467.081 178.496 467.3 178.125 467.585 177.812C467.869 177.495 468.217 177.247 468.628 177.07C469.038 176.888 469.5 176.797 470.014 176.797ZM470.042 177.714C469.44 177.714 468.966 177.889 468.621 178.239C468.275 178.584 468.061 179.065 467.977 179.681H471.834C471.834 179.392 471.794 179.128 471.715 178.89C471.635 178.647 471.519 178.44 471.365 178.267C471.211 178.09 471.022 177.954 470.798 177.861C470.578 177.763 470.326 177.714 470.042 177.714ZM479.385 178.169C479.348 178.22 479.311 178.26 479.273 178.288C479.236 178.316 479.182 178.33 479.112 178.33C479.042 178.33 478.965 178.302 478.881 178.246C478.802 178.185 478.699 178.12 478.573 178.05C478.447 177.98 478.293 177.917 478.111 177.861C477.934 177.8 477.715 177.77 477.453 177.77C477.108 177.77 476.802 177.833 476.536 177.959C476.27 178.08 476.046 178.258 475.864 178.491C475.687 178.724 475.552 179.007 475.458 179.338C475.37 179.669 475.325 180.04 475.325 180.451C475.325 180.88 475.374 181.263 475.472 181.599C475.57 181.93 475.708 182.21 475.885 182.439C476.063 182.663 476.277 182.836 476.529 182.957C476.786 183.074 477.073 183.132 477.39 183.132C477.694 183.132 477.943 183.097 478.139 183.027C478.335 182.952 478.499 182.871 478.629 182.782C478.76 182.693 478.867 182.614 478.951 182.544C479.035 182.469 479.119 182.432 479.203 182.432C479.311 182.432 479.39 182.472 479.441 182.551L479.791 183.006C479.483 183.384 479.098 183.662 478.636 183.839C478.174 184.012 477.687 184.098 477.173 184.098C476.73 184.098 476.317 184.016 475.934 183.853C475.556 183.69 475.227 183.454 474.947 183.146C474.667 182.833 474.446 182.451 474.282 181.998C474.124 181.545 474.044 181.03 474.044 180.451C474.044 179.924 474.117 179.436 474.261 178.988C474.411 178.54 474.625 178.155 474.905 177.833C475.19 177.506 475.54 177.252 475.955 177.07C476.371 176.888 476.847 176.797 477.383 176.797C477.878 176.797 478.317 176.879 478.699 177.042C479.082 177.201 479.42 177.427 479.714 177.721L479.385 178.169ZM483.233 184.112C482.673 184.112 482.241 183.956 481.938 183.643C481.639 183.33 481.49 182.88 481.49 182.292V177.952H480.636C480.561 177.952 480.498 177.931 480.447 177.889C480.395 177.842 480.37 177.772 480.37 177.679V177.182L481.532 177.035L481.819 174.844C481.828 174.774 481.858 174.718 481.91 174.676C481.961 174.629 482.026 174.606 482.106 174.606H482.736V177.049H484.766V177.952H482.736V182.208C482.736 182.507 482.808 182.728 482.953 182.873C483.097 183.018 483.284 183.09 483.513 183.09C483.643 183.09 483.755 183.074 483.849 183.041C483.947 183.004 484.031 182.964 484.101 182.922C484.171 182.88 484.229 182.843 484.276 182.81C484.327 182.773 484.371 182.754 484.409 182.754C484.474 182.754 484.532 182.794 484.584 182.873L484.948 183.468C484.733 183.669 484.474 183.827 484.171 183.944C483.867 184.056 483.555 184.112 483.233 184.112ZM490.366 178.078C490.31 178.181 490.224 178.232 490.107 178.232C490.037 178.232 489.958 178.206 489.869 178.155C489.781 178.104 489.671 178.048 489.54 177.987C489.414 177.922 489.263 177.863 489.085 177.812C488.908 177.756 488.698 177.728 488.455 177.728C488.245 177.728 488.056 177.756 487.888 177.812C487.72 177.863 487.576 177.936 487.454 178.029C487.338 178.122 487.247 178.232 487.181 178.358C487.121 178.479 487.09 178.612 487.09 178.757C487.09 178.939 487.142 179.091 487.244 179.212C487.352 179.333 487.492 179.438 487.664 179.527C487.837 179.616 488.033 179.695 488.252 179.765C488.472 179.83 488.696 179.903 488.924 179.982C489.158 180.057 489.384 180.141 489.603 180.234C489.823 180.327 490.019 180.444 490.191 180.584C490.364 180.724 490.502 180.897 490.604 181.102C490.712 181.303 490.765 181.545 490.765 181.83C490.765 182.157 490.707 182.46 490.59 182.74C490.474 183.015 490.301 183.256 490.072 183.461C489.844 183.662 489.564 183.82 489.232 183.937C488.901 184.054 488.518 184.112 488.084 184.112C487.59 184.112 487.142 184.033 486.74 183.874C486.339 183.711 485.998 183.503 485.718 183.251L486.012 182.775C486.05 182.714 486.094 182.668 486.145 182.635C486.197 182.602 486.264 182.586 486.348 182.586C486.432 182.586 486.521 182.619 486.614 182.684C486.708 182.749 486.82 182.822 486.95 182.901C487.086 182.98 487.247 183.053 487.433 183.118C487.625 183.183 487.863 183.216 488.147 183.216C488.39 183.216 488.602 183.186 488.784 183.125C488.966 183.06 489.118 182.973 489.239 182.866C489.361 182.759 489.449 182.635 489.505 182.495C489.566 182.355 489.596 182.206 489.596 182.047C489.596 181.851 489.543 181.69 489.435 181.564C489.333 181.433 489.195 181.324 489.022 181.235C488.85 181.142 488.651 181.062 488.427 180.997C488.208 180.927 487.982 180.855 487.748 180.78C487.52 180.705 487.293 180.621 487.069 180.528C486.85 180.43 486.654 180.309 486.481 180.164C486.309 180.019 486.169 179.842 486.061 179.632C485.959 179.417 485.907 179.158 485.907 178.855C485.907 178.584 485.963 178.325 486.075 178.078C486.187 177.826 486.351 177.607 486.565 177.42C486.78 177.229 487.044 177.077 487.356 176.965C487.669 176.853 488.026 176.797 488.427 176.797C488.894 176.797 489.312 176.872 489.68 177.021C490.054 177.166 490.376 177.366 490.646 177.623L490.366 178.078Z" fill="#424551"/>
</g>
<g clip-path="url(#clip4_2199_175)">
<g clip-path="url(#clip5_2199_175)">
<circle opacity="0.3" cx="270" cy="74" r="71" stroke="#F52F6E" stroke-width="6"/>
<path d="M270 142C307.555 142 338 111.555 338 74C338 36.4446 307.555 6 270 6V0C310.869 0 344 33.1309 344 74C344 114.869 310.869 148 270 148C229.131 148 196 114.869 196 74H202C202 111.555 232.445 142 270 142Z" fill="#F52F6E"/>
<path d="M266.054 76.944H268.454V79.728C268.454 79.9733 268.368 80.1867 268.198 80.368C268.038 80.5493 267.803 80.64 267.494 80.64H266.054V86H261.734V80.64H252.358C252.048 80.64 251.766 80.544 251.51 80.352C251.264 80.16 251.11 79.92 251.046 79.632L250.534 77.184L261.318 62.688H266.054V76.944ZM261.734 70.864C261.734 70.4907 261.744 70.0907 261.766 69.664C261.798 69.2267 261.84 68.7787 261.894 68.32L255.734 76.944H261.734V70.864ZM284.968 64.736C284.968 65.0773 284.915 65.3867 284.808 65.664C284.701 65.9413 284.531 66.1867 284.296 66.4C284.072 66.6027 283.773 66.7627 283.4 66.88C283.027 66.9867 282.579 67.04 282.056 67.04H276.488L275.832 70.896C276.269 70.8213 276.691 70.768 277.096 70.736C277.501 70.6933 277.896 70.672 278.28 70.672C279.507 70.672 280.589 70.8587 281.528 71.232C282.467 71.6053 283.256 72.1173 283.896 72.768C284.536 73.408 285.016 74.1653 285.336 75.04C285.667 75.904 285.832 76.832 285.832 77.824C285.832 79.072 285.608 80.2133 285.16 81.248C284.723 82.272 284.109 83.1573 283.32 83.904C282.531 84.6507 281.587 85.232 280.488 85.648C279.4 86.0533 278.205 86.256 276.904 86.256C276.147 86.256 275.421 86.176 274.728 86.016C274.045 85.856 273.4 85.6427 272.792 85.376C272.195 85.0987 271.64 84.784 271.128 84.432C270.616 84.0693 270.152 83.6853 269.736 83.28L271.272 81.232C271.432 81.0187 271.619 80.8587 271.832 80.752C272.045 80.6347 272.275 80.576 272.52 80.576C272.84 80.576 273.139 80.6667 273.416 80.848C273.704 81.0187 274.013 81.2107 274.344 81.424C274.685 81.6267 275.08 81.8133 275.528 81.984C275.976 82.1547 276.531 82.24 277.192 82.24C277.853 82.24 278.419 82.1333 278.888 81.92C279.357 81.696 279.736 81.3973 280.024 81.024C280.323 80.64 280.536 80.1973 280.664 79.696C280.803 79.184 280.872 78.64 280.872 78.064C280.872 76.9333 280.552 76.0747 279.912 75.488C279.272 74.8907 278.365 74.592 277.192 74.592C276.147 74.592 275.123 74.7893 274.12 75.184L271.048 74.352L273.032 62.688H284.968V64.736Z" fill="#1E212C"/>
</g>
<path d="M256.037 184H254.987C254.866 184 254.768 183.97 254.693 183.909C254.619 183.848 254.563 183.771 254.525 183.678L253.587 181.256H249.086L248.148 183.678C248.116 183.762 248.06 183.837 247.98 183.902C247.901 183.967 247.803 184 247.686 184H246.636L250.647 173.969H252.026L256.037 184ZM249.464 180.276H253.209L251.634 176.195C251.532 175.943 251.431 175.628 251.333 175.25C251.282 175.441 251.231 175.619 251.179 175.782C251.133 175.941 251.086 176.081 251.039 176.202L249.464 180.276ZM256.18 176.909H257.16C257.263 176.909 257.347 176.935 257.412 176.986C257.477 177.037 257.522 177.098 257.545 177.168L258.903 181.732C258.94 181.9 258.975 182.063 259.008 182.222C259.041 182.376 259.069 182.532 259.092 182.691C259.129 182.532 259.171 182.376 259.218 182.222C259.265 182.063 259.314 181.9 259.365 181.732L260.863 177.14C260.886 177.07 260.926 177.012 260.982 176.965C261.043 176.918 261.117 176.895 261.206 176.895H261.745C261.838 176.895 261.915 176.918 261.976 176.965C262.037 177.012 262.079 177.07 262.102 177.14L263.565 181.732C263.616 181.895 263.661 182.056 263.698 182.215C263.74 182.374 263.78 182.53 263.817 182.684C263.84 182.53 263.871 182.369 263.908 182.201C263.945 182.033 263.985 181.877 264.027 181.732L265.413 177.168C265.436 177.093 265.481 177.033 265.546 176.986C265.611 176.935 265.688 176.909 265.777 176.909H266.715L264.419 184H263.432C263.311 184 263.227 183.921 263.18 183.762L261.612 178.953C261.575 178.846 261.544 178.738 261.521 178.631C261.498 178.519 261.474 178.409 261.451 178.302C261.428 178.409 261.404 178.519 261.381 178.631C261.358 178.743 261.327 178.853 261.29 178.96L259.701 183.762C259.65 183.921 259.554 184 259.414 184H258.476L256.18 176.909ZM273.031 184H272.478C272.356 184 272.258 183.981 272.184 183.944C272.109 183.907 272.06 183.827 272.037 183.706L271.897 183.048C271.71 183.216 271.528 183.368 271.351 183.503C271.173 183.634 270.987 183.746 270.791 183.839C270.595 183.928 270.385 183.995 270.161 184.042C269.941 184.089 269.696 184.112 269.426 184.112C269.15 184.112 268.891 184.075 268.649 184C268.411 183.921 268.203 183.804 268.026 183.65C267.848 183.496 267.706 183.302 267.599 183.069C267.496 182.831 267.445 182.551 267.445 182.229C267.445 181.949 267.522 181.681 267.676 181.424C267.83 181.163 268.077 180.932 268.418 180.731C268.763 180.53 269.213 180.367 269.769 180.241C270.324 180.11 271.003 180.036 271.806 180.017V179.464C271.806 178.913 271.687 178.498 271.449 178.218C271.215 177.933 270.868 177.791 270.406 177.791C270.102 177.791 269.846 177.831 269.636 177.91C269.43 177.985 269.251 178.071 269.097 178.169C268.947 178.262 268.817 178.349 268.705 178.428C268.597 178.503 268.49 178.54 268.383 178.54C268.299 178.54 268.224 178.519 268.159 178.477C268.098 178.43 268.049 178.374 268.012 178.309L267.788 177.91C268.18 177.532 268.602 177.25 269.055 177.063C269.507 176.876 270.009 176.783 270.56 176.783C270.956 176.783 271.309 176.848 271.617 176.979C271.925 177.11 272.184 177.292 272.394 177.525C272.604 177.758 272.762 178.041 272.87 178.372C272.977 178.703 273.031 179.067 273.031 179.464V184ZM269.797 183.237C270.016 183.237 270.217 183.216 270.399 183.174C270.581 183.127 270.751 183.064 270.91 182.985C271.073 182.901 271.227 182.801 271.372 182.684C271.521 182.567 271.666 182.434 271.806 182.285V180.808C271.232 180.827 270.744 180.873 270.343 180.948C269.941 181.018 269.615 181.111 269.363 181.228C269.111 181.345 268.926 181.482 268.81 181.641C268.698 181.8 268.642 181.977 268.642 182.173C268.642 182.36 268.672 182.521 268.733 182.656C268.793 182.791 268.875 182.903 268.978 182.992C269.08 183.076 269.202 183.139 269.342 183.181C269.482 183.218 269.633 183.237 269.797 183.237ZM274.918 184V176.909H275.632C275.768 176.909 275.861 176.935 275.912 176.986C275.964 177.037 275.999 177.126 276.017 177.252L276.101 178.358C276.344 177.863 276.643 177.478 276.997 177.203C277.357 176.923 277.777 176.783 278.257 176.783C278.453 176.783 278.631 176.806 278.789 176.853C278.948 176.895 279.095 176.956 279.23 177.035L279.069 177.966C279.037 178.083 278.964 178.141 278.852 178.141C278.787 178.141 278.687 178.12 278.551 178.078C278.416 178.031 278.227 178.008 277.984 178.008C277.55 178.008 277.186 178.134 276.892 178.386C276.603 178.638 276.36 179.004 276.164 179.485V184H274.918ZM285.556 184C285.379 184 285.267 183.914 285.22 183.741L285.108 182.88C284.805 183.249 284.457 183.545 284.065 183.769C283.678 183.988 283.232 184.098 282.728 184.098C282.322 184.098 281.953 184.021 281.622 183.867C281.291 183.708 281.008 183.477 280.775 183.174C280.542 182.871 280.362 182.493 280.236 182.04C280.11 181.587 280.047 181.067 280.047 180.479C280.047 179.956 280.117 179.471 280.257 179.023C280.397 178.57 280.598 178.178 280.859 177.847C281.125 177.516 281.447 177.257 281.825 177.07C282.203 176.879 282.632 176.783 283.113 176.783C283.547 176.783 283.918 176.858 284.226 177.007C284.534 177.152 284.809 177.357 285.052 177.623V173.689H286.298V184H285.556ZM283.141 183.09C283.547 183.09 283.902 182.997 284.205 182.81C284.513 182.623 284.795 182.36 285.052 182.019V178.589C284.823 178.281 284.571 178.066 284.296 177.945C284.025 177.819 283.724 177.756 283.393 177.756C282.73 177.756 282.222 177.992 281.867 178.463C281.512 178.934 281.335 179.606 281.335 180.479C281.335 180.941 281.375 181.338 281.454 181.669C281.533 181.996 281.65 182.266 281.804 182.481C281.958 182.691 282.147 182.845 282.371 182.943C282.595 183.041 282.852 183.09 283.141 183.09ZM292.445 178.078C292.389 178.181 292.303 178.232 292.186 178.232C292.116 178.232 292.037 178.206 291.948 178.155C291.86 178.104 291.75 178.048 291.619 177.987C291.493 177.922 291.342 177.863 291.164 177.812C290.987 177.756 290.777 177.728 290.534 177.728C290.324 177.728 290.135 177.756 289.967 177.812C289.799 177.863 289.655 177.936 289.533 178.029C289.417 178.122 289.326 178.232 289.26 178.358C289.2 178.479 289.169 178.612 289.169 178.757C289.169 178.939 289.221 179.091 289.323 179.212C289.431 179.333 289.571 179.438 289.743 179.527C289.916 179.616 290.112 179.695 290.331 179.765C290.551 179.83 290.775 179.903 291.003 179.982C291.237 180.057 291.463 180.141 291.682 180.234C291.902 180.327 292.098 180.444 292.27 180.584C292.443 180.724 292.581 180.897 292.683 181.102C292.791 181.303 292.844 181.545 292.844 181.83C292.844 182.157 292.786 182.46 292.669 182.74C292.553 183.015 292.38 183.256 292.151 183.461C291.923 183.662 291.643 183.82 291.311 183.937C290.98 184.054 290.597 184.112 290.163 184.112C289.669 184.112 289.221 184.033 288.819 183.874C288.418 183.711 288.077 183.503 287.797 183.251L288.091 182.775C288.129 182.714 288.173 182.668 288.224 182.635C288.276 182.602 288.343 182.586 288.427 182.586C288.511 182.586 288.6 182.619 288.693 182.684C288.787 182.749 288.899 182.822 289.029 182.901C289.165 182.98 289.326 183.053 289.512 183.118C289.704 183.183 289.942 183.216 290.226 183.216C290.469 183.216 290.681 183.186 290.863 183.125C291.045 183.06 291.197 182.973 291.318 182.866C291.44 182.759 291.528 182.635 291.584 182.495C291.645 182.355 291.675 182.206 291.675 182.047C291.675 181.851 291.622 181.69 291.514 181.564C291.412 181.433 291.274 181.324 291.101 181.235C290.929 181.142 290.73 181.062 290.506 180.997C290.287 180.927 290.061 180.855 289.827 180.78C289.599 180.705 289.372 180.621 289.148 180.528C288.929 180.43 288.733 180.309 288.56 180.164C288.388 180.019 288.248 179.842 288.14 179.632C288.038 179.417 287.986 179.158 287.986 178.855C287.986 178.584 288.042 178.325 288.154 178.078C288.266 177.826 288.43 177.607 288.644 177.42C288.859 177.229 289.123 177.077 289.435 176.965C289.748 176.853 290.105 176.797 290.506 176.797C290.973 176.797 291.391 176.872 291.759 177.021C292.133 177.166 292.455 177.366 292.725 177.623L292.445 178.078Z" fill="#424551"/>
</g>
<g clip-path="url(#clip6_2199_175)">
<g clip-path="url(#clip7_2199_175)">
<circle opacity="0.3" cx="74" cy="74" r="71" stroke="#F89828" stroke-width="6"/>
<path d="M74 142C111.555 142 142 111.555 142 74C142 36.4446 111.555 6 74 6V0C114.869 0 148 33.1309 148 74C148 114.869 114.869 148 74 148C33.1309 148 0 114.869 0 74C0 51.3485 10.1774 31.0741 26.209 17.5L30 22.1523C15.3167 34.6254 6 53.2247 6 74C6 111.555 36.4446 142 74 142Z" fill="#F89828"/>
<path d="M58.4695 82.416H62.9495V70.656C62.9495 70.08 62.9655 69.4773 62.9975 68.848L60.3575 71.04C60.1868 71.1787 60.0162 71.28 59.8455 71.344C59.6748 71.3973 59.5095 71.424 59.3495 71.424C59.0722 71.424 58.8215 71.3653 58.5975 71.248C58.3842 71.12 58.2242 70.9867 58.1175 70.848L56.5495 68.768L63.8135 62.672H67.9095V82.416H71.7495V86H58.4695V82.416ZM90.92 74.336C90.92 76.3733 90.7013 78.1387 90.264 79.632C89.8267 81.1253 89.2187 82.3627 88.44 83.344C87.672 84.3253 86.7547 85.056 85.688 85.536C84.632 86.016 83.4853 86.256 82.248 86.256C81.0107 86.256 79.864 86.016 78.808 85.536C77.7627 85.056 76.856 84.3253 76.088 83.344C75.32 82.3627 74.7173 81.1253 74.28 79.632C73.8533 78.1387 73.64 76.3733 73.64 74.336C73.64 72.2987 73.8533 70.5333 74.28 69.04C74.7173 67.5467 75.32 66.3093 76.088 65.328C76.856 64.3467 77.7627 63.6213 78.808 63.152C79.864 62.672 81.0107 62.432 82.248 62.432C83.4853 62.432 84.632 62.672 85.688 63.152C86.7547 63.6213 87.672 64.3467 88.44 65.328C89.2187 66.3093 89.8267 67.5467 90.264 69.04C90.7013 70.5333 90.92 72.2987 90.92 74.336ZM85.8 74.336C85.8 72.7253 85.6987 71.408 85.496 70.384C85.2933 69.3493 85.0213 68.5387 84.68 67.952C84.3493 67.3653 83.9707 66.9653 83.544 66.752C83.1173 66.528 82.6853 66.416 82.248 66.416C81.8107 66.416 81.3787 66.528 80.952 66.752C80.536 66.9653 80.1627 67.3653 79.832 67.952C79.512 68.5387 79.2507 69.3493 79.048 70.384C78.856 71.408 78.76 72.7253 78.76 74.336C78.76 75.9573 78.856 77.28 79.048 78.304C79.2507 79.328 79.512 80.1387 79.832 80.736C80.1627 81.3227 80.536 81.728 80.952 81.952C81.3787 82.1653 81.8107 82.272 82.248 82.272C82.6853 82.272 83.1173 82.1653 83.544 81.952C83.9707 81.728 84.3493 81.3227 84.68 80.736C85.0213 80.1387 85.2933 79.328 85.496 78.304C85.6987 77.28 85.8 75.9573 85.8 74.336Z" fill="#1E212C"/>
</g>
<path d="M19.5752 180.01V184H18.2242V180.01L14.5492 173.969H15.7392C15.8605 173.969 15.9562 173.999 16.0262 174.06C16.0962 174.121 16.1568 174.195 16.2082 174.284L18.5042 178.183C18.5975 178.346 18.6745 178.5 18.7352 178.645C18.8005 178.79 18.8588 178.932 18.9102 179.072C18.9615 178.927 19.0175 178.783 19.0782 178.638C19.1388 178.493 19.2158 178.342 19.3092 178.183L21.5982 174.284C21.6402 174.209 21.6962 174.139 21.7662 174.074C21.8408 174.004 21.9365 173.969 22.0532 173.969H23.2572L19.5752 180.01ZM26.0058 176.797C26.4304 176.797 26.8224 176.869 27.1818 177.014C27.5411 177.154 27.8514 177.359 28.1128 177.63C28.3741 177.896 28.5771 178.227 28.7218 178.624C28.8711 179.016 28.9458 179.464 28.9458 179.968C28.9458 180.164 28.9248 180.295 28.8828 180.36C28.8408 180.425 28.7614 180.458 28.6448 180.458H23.9268C23.9361 180.906 23.9968 181.296 24.1088 181.627C24.2208 181.958 24.3748 182.236 24.5708 182.46C24.7668 182.679 25.0001 182.845 25.2708 182.957C25.5414 183.064 25.8448 183.118 26.1808 183.118C26.4934 183.118 26.7618 183.083 26.9858 183.013C27.2144 182.938 27.4104 182.859 27.5738 182.775C27.7371 182.691 27.8724 182.614 27.9798 182.544C28.0918 182.469 28.1874 182.432 28.2668 182.432C28.3694 182.432 28.4488 182.472 28.5048 182.551L28.8548 183.006C28.7008 183.193 28.5164 183.356 28.3018 183.496C28.0871 183.631 27.8561 183.743 27.6088 183.832C27.3661 183.921 27.1141 183.986 26.8528 184.028C26.5914 184.075 26.3324 184.098 26.0758 184.098C25.5858 184.098 25.1331 184.016 24.7178 183.853C24.3071 183.685 23.9501 183.442 23.6468 183.125C23.3481 182.803 23.1148 182.406 22.9468 181.935C22.7788 181.464 22.6948 180.922 22.6948 180.311C22.6948 179.816 22.7694 179.354 22.9188 178.925C23.0728 178.496 23.2921 178.125 23.5768 177.812C23.8614 177.495 24.2091 177.247 24.6198 177.07C25.0304 176.888 25.4924 176.797 26.0058 176.797ZM26.0338 177.714C25.4318 177.714 24.9581 177.889 24.6128 178.239C24.2674 178.584 24.0528 179.065 23.9688 179.681H27.8258C27.8258 179.392 27.7861 179.128 27.7068 178.89C27.6274 178.647 27.5108 178.44 27.3568 178.267C27.2028 178.09 27.0138 177.954 26.7898 177.861C26.5704 177.763 26.3184 177.714 26.0338 177.714ZM35.7486 184H35.1956C35.0742 184 34.9762 183.981 34.9016 183.944C34.8269 183.907 34.7779 183.827 34.7546 183.706L34.6146 183.048C34.4279 183.216 34.2459 183.368 34.0686 183.503C33.8912 183.634 33.7046 183.746 33.5086 183.839C33.3126 183.928 33.1026 183.995 32.8786 184.042C32.6592 184.089 32.4142 184.112 32.1436 184.112C31.8682 184.112 31.6092 184.075 31.3666 184C31.1286 183.921 30.9209 183.804 30.7436 183.65C30.5662 183.496 30.4239 183.302 30.3166 183.069C30.2139 182.831 30.1626 182.551 30.1626 182.229C30.1626 181.949 30.2396 181.681 30.3936 181.424C30.5476 181.163 30.7949 180.932 31.1356 180.731C31.4809 180.53 31.9312 180.367 32.4866 180.241C33.0419 180.11 33.7209 180.036 34.5236 180.017V179.464C34.5236 178.913 34.4046 178.498 34.1666 178.218C33.9332 177.933 33.5856 177.791 33.1236 177.791C32.8202 177.791 32.5636 177.831 32.3536 177.91C32.1482 177.985 31.9686 178.071 31.8146 178.169C31.6652 178.262 31.5346 178.349 31.4226 178.428C31.3152 178.503 31.2079 178.54 31.1006 178.54C31.0166 178.54 30.9419 178.519 30.8766 178.477C30.8159 178.43 30.7669 178.374 30.7296 178.309L30.5056 177.91C30.8976 177.532 31.3199 177.25 31.7726 177.063C32.2252 176.876 32.7269 176.783 33.2776 176.783C33.6742 176.783 34.0266 176.848 34.3346 176.979C34.6426 177.11 34.9016 177.292 35.1116 177.525C35.3216 177.758 35.4802 178.041 35.5876 178.372C35.6949 178.703 35.7486 179.067 35.7486 179.464V184ZM32.5146 183.237C32.7339 183.237 32.9346 183.216 33.1166 183.174C33.2986 183.127 33.4689 183.064 33.6276 182.985C33.7909 182.901 33.9449 182.801 34.0896 182.684C34.2389 182.567 34.3836 182.434 34.5236 182.285V180.808C33.9496 180.827 33.4619 180.873 33.0606 180.948C32.6592 181.018 32.3326 181.111 32.0806 181.228C31.8286 181.345 31.6442 181.482 31.5276 181.641C31.4156 181.8 31.3596 181.977 31.3596 182.173C31.3596 182.36 31.3899 182.521 31.4506 182.656C31.5112 182.791 31.5929 182.903 31.6956 182.992C31.7982 183.076 31.9196 183.139 32.0596 183.181C32.1996 183.218 32.3512 183.237 32.5146 183.237ZM37.6363 184V176.909H38.3503C38.4856 176.909 38.5789 176.935 38.6303 176.986C38.6816 177.037 38.7166 177.126 38.7353 177.252L38.8193 178.358C39.0619 177.863 39.3606 177.478 39.7153 177.203C40.0746 176.923 40.4946 176.783 40.9753 176.783C41.1713 176.783 41.3486 176.806 41.5073 176.853C41.6659 176.895 41.8129 176.956 41.9483 177.035L41.7873 177.966C41.7546 178.083 41.6823 178.141 41.5703 178.141C41.5049 178.141 41.4046 178.12 41.2693 178.078C41.1339 178.031 40.9449 178.008 40.7023 178.008C40.2683 178.008 39.9043 178.134 39.6103 178.386C39.3209 178.638 39.0783 179.004 38.8823 179.485V184H37.6363ZM47.3427 178.078C47.2867 178.181 47.2004 178.232 47.0837 178.232C47.0137 178.232 46.9344 178.206 46.8457 178.155C46.7571 178.104 46.6474 178.048 46.5167 177.987C46.3907 177.922 46.2391 177.863 46.0617 177.812C45.8844 177.756 45.6744 177.728 45.4317 177.728C45.2217 177.728 45.0327 177.756 44.8647 177.812C44.6967 177.863 44.5521 177.936 44.4307 178.029C44.3141 178.122 44.2231 178.232 44.1577 178.358C44.0971 178.479 44.0667 178.612 44.0667 178.757C44.0667 178.939 44.1181 179.091 44.2207 179.212C44.3281 179.333 44.4681 179.438 44.6407 179.527C44.8134 179.616 45.0094 179.695 45.2287 179.765C45.4481 179.83 45.6721 179.903 45.9007 179.982C46.1341 180.057 46.3604 180.141 46.5797 180.234C46.7991 180.327 46.9951 180.444 47.1677 180.584C47.3404 180.724 47.4781 180.897 47.5807 181.102C47.6881 181.303 47.7417 181.545 47.7417 181.83C47.7417 182.157 47.6834 182.46 47.5667 182.74C47.4501 183.015 47.2774 183.256 47.0487 183.461C46.8201 183.662 46.5401 183.82 46.2087 183.937C45.8774 184.054 45.4947 184.112 45.0607 184.112C44.5661 184.112 44.1181 184.033 43.7167 183.874C43.3154 183.711 42.9747 183.503 42.6947 183.251L42.9887 182.775C43.0261 182.714 43.0704 182.668 43.1217 182.635C43.1731 182.602 43.2407 182.586 43.3247 182.586C43.4087 182.586 43.4974 182.619 43.5907 182.684C43.6841 182.749 43.7961 182.822 43.9267 182.901C44.0621 182.98 44.2231 183.053 44.4097 183.118C44.6011 183.183 44.8391 183.216 45.1237 183.216C45.3664 183.216 45.5787 183.186 45.7607 183.125C45.9427 183.06 46.0944 182.973 46.2157 182.866C46.3371 182.759 46.4257 182.635 46.4817 182.495C46.5424 182.355 46.5727 182.206 46.5727 182.047C46.5727 181.851 46.5191 181.69 46.4117 181.564C46.3091 181.433 46.1714 181.324 45.9987 181.235C45.8261 181.142 45.6277 181.062 45.4037 180.997C45.1844 180.927 44.9581 180.855 44.7247 180.78C44.4961 180.705 44.2697 180.621 44.0457 180.528C43.8264 180.43 43.6304 180.309 43.4577 180.164C43.2851 180.019 43.1451 179.842 43.0377 179.632C42.9351 179.417 42.8837 179.158 42.8837 178.855C42.8837 178.584 42.9397 178.325 43.0517 178.078C43.1637 177.826 43.3271 177.607 43.5417 177.42C43.7564 177.229 44.0201 177.077 44.3327 176.965C44.6454 176.853 45.0024 176.797 45.4037 176.797C45.8704 176.797 46.2881 176.872 46.6567 177.021C47.0301 177.166 47.3521 177.366 47.6227 177.623L47.3427 178.078ZM54.9301 176.797C55.4481 176.797 55.9148 176.883 56.3301 177.056C56.7501 177.229 57.1048 177.474 57.3941 177.791C57.6881 178.108 57.9121 178.493 58.0661 178.946C58.2248 179.394 58.3041 179.896 58.3041 180.451C58.3041 181.011 58.2248 181.515 58.0661 181.963C57.9121 182.411 57.6881 182.794 57.3941 183.111C57.1048 183.428 56.7501 183.673 56.3301 183.846C55.9148 184.014 55.4481 184.098 54.9301 184.098C54.4121 184.098 53.9431 184.014 53.5231 183.846C53.1078 183.673 52.7531 183.428 52.4591 183.111C52.1651 182.794 51.9388 182.411 51.7801 181.963C51.6214 181.515 51.5421 181.011 51.5421 180.451C51.5421 179.896 51.6214 179.394 51.7801 178.946C51.9388 178.493 52.1651 178.108 52.4591 177.791C52.7531 177.474 53.1078 177.229 53.5231 177.056C53.9431 176.883 54.4121 176.797 54.9301 176.797ZM54.9301 183.125C55.6301 183.125 56.1528 182.892 56.4981 182.425C56.8434 181.954 57.0161 181.298 57.0161 180.458C57.0161 179.613 56.8434 178.955 56.4981 178.484C56.1528 178.013 55.6301 177.777 54.9301 177.777C54.5754 177.777 54.2674 177.838 54.0061 177.959C53.7448 178.08 53.5254 178.255 53.3481 178.484C53.1754 178.713 53.0448 178.995 52.9561 179.331C52.8721 179.662 52.8301 180.038 52.8301 180.458C52.8301 180.878 52.8721 181.254 52.9561 181.585C53.0448 181.916 53.1754 182.196 53.3481 182.425C53.5254 182.649 53.7448 182.822 54.0061 182.943C54.2674 183.064 54.5754 183.125 54.9301 183.125ZM60.1194 184V177.973L59.3354 177.882C59.2374 177.859 59.1557 177.824 59.0904 177.777C59.0297 177.726 58.9994 177.653 58.9994 177.56V177.049H60.1194V176.363C60.1194 175.957 60.1754 175.598 60.2874 175.285C60.404 174.968 60.5674 174.702 60.7774 174.487C60.992 174.268 61.2487 174.102 61.5474 173.99C61.846 173.878 62.182 173.822 62.5554 173.822C62.8727 173.822 63.1667 173.869 63.4374 173.962L63.4094 174.585C63.4047 174.678 63.365 174.734 63.2904 174.753C63.2157 174.772 63.1107 174.781 62.9754 174.781H62.7584C62.5437 174.781 62.3477 174.809 62.1704 174.865C61.9977 174.921 61.8484 175.012 61.7224 175.138C61.5964 175.264 61.4984 175.43 61.4284 175.635C61.363 175.84 61.3304 176.095 61.3304 176.398V177.049H63.3814V177.952H61.3724V184H60.1194ZM70.0702 176.797C70.4949 176.797 70.8869 176.869 71.2462 177.014C71.6055 177.154 71.9159 177.359 72.1772 177.63C72.4385 177.896 72.6415 178.227 72.7862 178.624C72.9355 179.016 73.0102 179.464 73.0102 179.968C73.0102 180.164 72.9892 180.295 72.9472 180.36C72.9052 180.425 72.8259 180.458 72.7092 180.458H67.9912C68.0005 180.906 68.0612 181.296 68.1732 181.627C68.2852 181.958 68.4392 182.236 68.6352 182.46C68.8312 182.679 69.0645 182.845 69.3352 182.957C69.6059 183.064 69.9092 183.118 70.2452 183.118C70.5579 183.118 70.8262 183.083 71.0502 183.013C71.2789 182.938 71.4749 182.859 71.6382 182.775C71.8015 182.691 71.9369 182.614 72.0442 182.544C72.1562 182.469 72.2519 182.432 72.3312 182.432C72.4339 182.432 72.5132 182.472 72.5692 182.551L72.9192 183.006C72.7652 183.193 72.5809 183.356 72.3662 183.496C72.1515 183.631 71.9205 183.743 71.6732 183.832C71.4305 183.921 71.1785 183.986 70.9172 184.028C70.6559 184.075 70.3969 184.098 70.1402 184.098C69.6502 184.098 69.1975 184.016 68.7822 183.853C68.3715 183.685 68.0145 183.442 67.7112 183.125C67.4125 182.803 67.1792 182.406 67.0112 181.935C66.8432 181.464 66.7592 180.922 66.7592 180.311C66.7592 179.816 66.8339 179.354 66.9832 178.925C67.1372 178.496 67.3565 178.125 67.6412 177.812C67.9259 177.495 68.2735 177.247 68.6842 177.07C69.0949 176.888 69.5569 176.797 70.0702 176.797ZM70.0982 177.714C69.4962 177.714 69.0225 177.889 68.6772 178.239C68.3319 178.584 68.1172 179.065 68.0332 179.681H71.8902C71.8902 179.392 71.8505 179.128 71.7712 178.89C71.6919 178.647 71.5752 178.44 71.4212 178.267C71.2672 178.09 71.0782 177.954 70.8542 177.861C70.6349 177.763 70.3829 177.714 70.0982 177.714ZM75.8402 180.367L73.4532 176.909H74.6502C74.7528 176.909 74.8275 176.925 74.8742 176.958C74.9208 176.991 74.9628 177.037 75.0002 177.098L76.7362 179.758C76.7782 179.627 76.8388 179.497 76.9182 179.366L78.4442 177.126C78.4908 177.061 78.5375 177.009 78.5842 176.972C78.6308 176.93 78.6892 176.909 78.7592 176.909H79.9072L77.5202 180.297L80.0052 184H78.8082C78.7055 184 78.6238 183.974 78.5632 183.923C78.5072 183.867 78.4605 183.806 78.4232 183.741L76.6382 180.962C76.6055 181.097 76.5565 181.219 76.4912 181.326L74.8392 183.741C74.7925 183.806 74.7412 183.867 74.6852 183.923C74.6338 183.974 74.5615 184 74.4682 184H73.3552L75.8402 180.367ZM81.2359 186.401V176.909H81.9779C82.1552 176.909 82.2672 176.995 82.3139 177.168L82.4189 178.008C82.7222 177.639 83.0675 177.343 83.4549 177.119C83.8469 176.895 84.2972 176.783 84.8059 176.783C85.2119 176.783 85.5805 176.862 85.9119 177.021C86.2432 177.175 86.5255 177.406 86.7589 177.714C86.9922 178.017 87.1719 178.395 87.2979 178.848C87.4239 179.301 87.4869 179.821 87.4869 180.409C87.4869 180.932 87.4169 181.419 87.2769 181.872C87.1369 182.32 86.9362 182.71 86.6749 183.041C86.4135 183.368 86.0915 183.627 85.7089 183.818C85.3309 184.005 84.9039 184.098 84.4279 184.098C83.9892 184.098 83.6135 184.026 83.3009 183.881C82.9929 183.736 82.7199 183.531 82.4819 183.265V186.401H81.2359ZM84.3929 177.791C83.9869 177.791 83.6299 177.884 83.3219 178.071C83.0185 178.258 82.7385 178.521 82.4819 178.862V182.292C82.7105 182.6 82.9602 182.817 83.2309 182.943C83.5062 183.069 83.8119 183.132 84.1479 183.132C84.8059 183.132 85.3122 182.896 85.6669 182.425C86.0215 181.954 86.1989 181.282 86.1989 180.409C86.1989 179.947 86.1569 179.55 86.0729 179.219C85.9935 178.888 85.8769 178.617 85.7229 178.407C85.5689 178.192 85.3799 178.036 85.1559 177.938C84.9319 177.84 84.6775 177.791 84.3929 177.791ZM91.7675 176.797C92.1921 176.797 92.5841 176.869 92.9435 177.014C93.3028 177.154 93.6131 177.359 93.8745 177.63C94.1358 177.896 94.3388 178.227 94.4835 178.624C94.6328 179.016 94.7075 179.464 94.7075 179.968C94.7075 180.164 94.6865 180.295 94.6445 180.36C94.6025 180.425 94.5231 180.458 94.4065 180.458H89.6885C89.6978 180.906 89.7585 181.296 89.8705 181.627C89.9825 181.958 90.1365 182.236 90.3325 182.46C90.5285 182.679 90.7618 182.845 91.0325 182.957C91.3031 183.064 91.6065 183.118 91.9425 183.118C92.2551 183.118 92.5235 183.083 92.7475 183.013C92.9761 182.938 93.1721 182.859 93.3355 182.775C93.4988 182.691 93.6341 182.614 93.7415 182.544C93.8535 182.469 93.9491 182.432 94.0285 182.432C94.1311 182.432 94.2105 182.472 94.2665 182.551L94.6165 183.006C94.4625 183.193 94.2781 183.356 94.0635 183.496C93.8488 183.631 93.6178 183.743 93.3705 183.832C93.1278 183.921 92.8758 183.986 92.6145 184.028C92.3531 184.075 92.0941 184.098 91.8375 184.098C91.3475 184.098 90.8948 184.016 90.4795 183.853C90.0688 183.685 89.7118 183.442 89.4085 183.125C89.1098 182.803 88.8765 182.406 88.7085 181.935C88.5405 181.464 88.4565 180.922 88.4565 180.311C88.4565 179.816 88.5311 179.354 88.6805 178.925C88.8345 178.496 89.0538 178.125 89.3385 177.812C89.6231 177.495 89.9708 177.247 90.3815 177.07C90.7921 176.888 91.2541 176.797 91.7675 176.797ZM91.7955 177.714C91.1935 177.714 90.7198 177.889 90.3745 178.239C90.0291 178.584 89.8145 179.065 89.7305 179.681H93.5875C93.5875 179.392 93.5478 179.128 93.4685 178.89C93.3891 178.647 93.2725 178.44 93.1185 178.267C92.9645 178.09 92.7755 177.954 92.5515 177.861C92.3321 177.763 92.0801 177.714 91.7955 177.714ZM96.3023 184V176.909H97.0163C97.1516 176.909 97.2449 176.935 97.2963 176.986C97.3476 177.037 97.3826 177.126 97.4013 177.252L97.4853 178.358C97.7279 177.863 98.0266 177.478 98.3813 177.203C98.7406 176.923 99.1606 176.783 99.6413 176.783C99.8373 176.783 100.015 176.806 100.173 176.853C100.332 176.895 100.479 176.956 100.614 177.035L100.453 177.966C100.421 178.083 100.348 178.141 100.236 178.141C100.171 178.141 100.071 178.12 99.9353 178.078C99.7999 178.031 99.6109 178.008 99.3683 178.008C98.9343 178.008 98.5703 178.134 98.2763 178.386C97.9869 178.638 97.7443 179.004 97.5483 179.485V184H96.3023ZM103.335 176.909V184H102.089V176.909H103.335ZM103.615 174.683C103.615 174.804 103.589 174.919 103.538 175.026C103.491 175.129 103.426 175.222 103.342 175.306C103.262 175.385 103.169 175.448 103.062 175.495C102.954 175.542 102.84 175.565 102.719 175.565C102.597 175.565 102.483 175.542 102.376 175.495C102.273 175.448 102.18 175.385 102.096 175.306C102.016 175.222 101.953 175.129 101.907 175.026C101.86 174.919 101.837 174.804 101.837 174.683C101.837 174.562 101.86 174.447 101.907 174.34C101.953 174.228 102.016 174.132 102.096 174.053C102.18 173.969 102.273 173.904 102.376 173.857C102.483 173.81 102.597 173.787 102.719 173.787C102.84 173.787 102.954 173.81 103.062 173.857C103.169 173.904 103.262 173.969 103.342 174.053C103.426 174.132 103.491 174.228 103.538 174.34C103.589 174.447 103.615 174.562 103.615 174.683ZM108.338 176.797C108.762 176.797 109.154 176.869 109.514 177.014C109.873 177.154 110.183 177.359 110.445 177.63C110.706 177.896 110.909 178.227 111.054 178.624C111.203 179.016 111.278 179.464 111.278 179.968C111.278 180.164 111.257 180.295 111.215 180.36C111.173 180.425 111.093 180.458 110.977 180.458H106.259C106.268 180.906 106.329 181.296 106.441 181.627C106.553 181.958 106.707 182.236 106.903 182.46C107.099 182.679 107.332 182.845 107.603 182.957C107.873 183.064 108.177 183.118 108.513 183.118C108.825 183.118 109.094 183.083 109.318 183.013C109.546 182.938 109.742 182.859 109.906 182.775C110.069 182.691 110.204 182.614 110.312 182.544C110.424 182.469 110.519 182.432 110.599 182.432C110.701 182.432 110.781 182.472 110.837 182.551L111.187 183.006C111.033 183.193 110.848 183.356 110.634 183.496C110.419 183.631 110.188 183.743 109.941 183.832C109.698 183.921 109.446 183.986 109.185 184.028C108.923 184.075 108.664 184.098 108.408 184.098C107.918 184.098 107.465 184.016 107.05 183.853C106.639 183.685 106.282 183.442 105.979 183.125C105.68 182.803 105.447 182.406 105.279 181.935C105.111 181.464 105.027 180.922 105.027 180.311C105.027 179.816 105.101 179.354 105.251 178.925C105.405 178.496 105.624 178.125 105.909 177.812C106.193 177.495 106.541 177.247 106.952 177.07C107.362 176.888 107.824 176.797 108.338 176.797ZM108.366 177.714C107.764 177.714 107.29 177.889 106.945 178.239C106.599 178.584 106.385 179.065 106.301 179.681H110.158C110.158 179.392 110.118 179.128 110.039 178.89C109.959 178.647 109.843 178.44 109.689 178.267C109.535 178.09 109.346 177.954 109.122 177.861C108.902 177.763 108.65 177.714 108.366 177.714ZM112.873 184V176.909H113.615C113.792 176.909 113.904 176.995 113.951 177.168L114.049 177.938C114.357 177.597 114.7 177.322 115.078 177.112C115.46 176.902 115.901 176.797 116.401 176.797C116.788 176.797 117.129 176.862 117.423 176.993C117.721 177.119 117.969 177.301 118.165 177.539C118.365 177.772 118.517 178.055 118.62 178.386C118.722 178.717 118.774 179.084 118.774 179.485V184H117.528V179.485C117.528 178.948 117.404 178.533 117.157 178.239C116.914 177.94 116.541 177.791 116.037 177.791C115.668 177.791 115.323 177.88 115.001 178.057C114.683 178.234 114.389 178.475 114.119 178.778V184H112.873ZM125.489 178.169C125.452 178.22 125.414 178.26 125.377 178.288C125.34 178.316 125.286 178.33 125.216 178.33C125.146 178.33 125.069 178.302 124.985 178.246C124.906 178.185 124.803 178.12 124.677 178.05C124.551 177.98 124.397 177.917 124.215 177.861C124.038 177.8 123.818 177.77 123.557 177.77C123.212 177.77 122.906 177.833 122.64 177.959C122.374 178.08 122.15 178.258 121.968 178.491C121.791 178.724 121.655 179.007 121.562 179.338C121.473 179.669 121.429 180.04 121.429 180.451C121.429 180.88 121.478 181.263 121.576 181.599C121.674 181.93 121.812 182.21 121.989 182.439C122.166 182.663 122.381 182.836 122.633 182.957C122.89 183.074 123.177 183.132 123.494 183.132C123.797 183.132 124.047 183.097 124.243 183.027C124.439 182.952 124.602 182.871 124.733 182.782C124.864 182.693 124.971 182.614 125.055 182.544C125.139 182.469 125.223 182.432 125.307 182.432C125.414 182.432 125.494 182.472 125.545 182.551L125.895 183.006C125.587 183.384 125.202 183.662 124.74 183.839C124.278 184.012 123.79 184.098 123.277 184.098C122.834 184.098 122.421 184.016 122.038 183.853C121.66 183.69 121.331 183.454 121.051 183.146C120.771 182.833 120.549 182.451 120.386 181.998C120.227 181.545 120.148 181.03 120.148 180.451C120.148 179.924 120.22 179.436 120.365 178.988C120.514 178.54 120.729 178.155 121.009 177.833C121.294 177.506 121.644 177.252 122.059 177.07C122.474 176.888 122.95 176.797 123.487 176.797C123.982 176.797 124.42 176.879 124.803 177.042C125.186 177.201 125.524 177.427 125.818 177.721L125.489 178.169ZM129.994 176.797C130.419 176.797 130.811 176.869 131.17 177.014C131.529 177.154 131.84 177.359 132.101 177.63C132.362 177.896 132.565 178.227 132.71 178.624C132.859 179.016 132.934 179.464 132.934 179.968C132.934 180.164 132.913 180.295 132.871 180.36C132.829 180.425 132.75 180.458 132.633 180.458H127.915C127.924 180.906 127.985 181.296 128.097 181.627C128.209 181.958 128.363 182.236 128.559 182.46C128.755 182.679 128.988 182.845 129.259 182.957C129.53 183.064 129.833 183.118 130.169 183.118C130.482 183.118 130.75 183.083 130.974 183.013C131.203 182.938 131.399 182.859 131.562 182.775C131.725 182.691 131.861 182.614 131.968 182.544C132.08 182.469 132.176 182.432 132.255 182.432C132.358 182.432 132.437 182.472 132.493 182.551L132.843 183.006C132.689 183.193 132.505 183.356 132.29 183.496C132.075 183.631 131.844 183.743 131.597 183.832C131.354 183.921 131.102 183.986 130.841 184.028C130.58 184.075 130.321 184.098 130.064 184.098C129.574 184.098 129.121 184.016 128.706 183.853C128.295 183.685 127.938 183.442 127.635 183.125C127.336 182.803 127.103 182.406 126.935 181.935C126.767 181.464 126.683 180.922 126.683 180.311C126.683 179.816 126.758 179.354 126.907 178.925C127.061 178.496 127.28 178.125 127.565 177.812C127.85 177.495 128.197 177.247 128.608 177.07C129.019 176.888 129.481 176.797 129.994 176.797ZM130.022 177.714C129.42 177.714 128.946 177.889 128.601 178.239C128.256 178.584 128.041 179.065 127.957 179.681H131.814C131.814 179.392 131.774 179.128 131.695 178.89C131.616 178.647 131.499 178.44 131.345 178.267C131.191 178.09 131.002 177.954 130.778 177.861C130.559 177.763 130.307 177.714 130.022 177.714Z" fill="#424551"/>
</g>
<defs>
<clipPath id="clip0_2199_175">
<rect width="148" height="189" fill="white" transform="translate(588)"/>
</clipPath>
<clipPath id="clip1_2199_175">
<rect width="148" height="148" fill="white" transform="translate(588)"/>
</clipPath>
<clipPath id="clip2_2199_175">
<rect width="148" height="189" fill="white" transform="translate(392)"/>
</clipPath>
<clipPath id="clip3_2199_175">
<rect width="148" height="148" fill="white" transform="translate(392)"/>
</clipPath>
<clipPath id="clip4_2199_175">
<rect width="148" height="189" fill="white" transform="translate(196)"/>
</clipPath>
<clipPath id="clip5_2199_175">
<rect width="148" height="148" fill="white" transform="translate(196)"/>
</clipPath>
<clipPath id="clip6_2199_175">
<rect width="148" height="189" fill="white"/>
</clipPath>
<clipPath id="clip7_2199_175">
<rect width="148" height="148" fill="white"/>
</clipPath>
</defs>
</svg>
