<svg width="286" height="36" viewBox="0 0 286 36" fill="none" xmlns="http://www.w3.org/2000/svg">
<rect width="286" height="36" rx="4" fill="white" fill-opacity="0.12"/>
<rect x="0.5" y="0.5" width="285" height="35" rx="3.5" stroke="white" stroke-opacity="0.2"/>
<g filter="url(#filter0_d_18760_2632)">
<path fill-rule="evenodd" clip-rule="evenodd" d="M267.862 14.5292C268.122 14.2689 268.544 14.2689 268.805 14.5292L271.805 17.5292C272.065 17.7896 272.065 18.2117 271.805 18.4721L268.805 21.4721C268.544 21.7324 268.122 21.7324 267.862 21.4721C267.602 21.2117 267.602 20.7896 267.862 20.5292L269.724 18.6673H260.667C260.298 18.6673 260 18.3688 260 18.0007C260 17.6325 260.298 17.334 260.667 17.334H269.724L267.862 15.4721C267.602 15.2117 267.602 14.7896 267.862 14.5292Z" fill="white"/>
</g>
<defs>
<filter id="filter0_d_18760_2632" x="254" y="10" width="24" height="24" filterUnits="userSpaceOnUse" color-interpolation-filters="sRGB">
<feFlood flood-opacity="0" result="BackgroundImageFix"/>
<feColorMatrix in="SourceAlpha" type="matrix" values="0 0 0 0 0 0 0 0 0 0 0 0 0 0 0 0 0 0 127 0" result="hardAlpha"/>
<feOffset dy="4"/>
<feGaussianBlur stdDeviation="2"/>
<feColorMatrix type="matrix" values="0 0 0 0 0 0 0 0 0 0 0 0 0 0 0 0 0 0 0.25 0"/>
<feBlend mode="normal" in2="BackgroundImageFix" result="effect1_dropShadow_18760_2632"/>
<feBlend mode="normal" in="SourceGraphic" in2="effect1_dropShadow_18760_2632" result="shape"/>
</filter>
</defs>
</svg>
