<svg width="24" height="24" viewBox="0 0 24 24" fill="none" xmlns="http://www.w3.org/2000/svg">
<path fill-rule="evenodd" clip-rule="evenodd" d="M12 1.00195C12.5523 1.00195 13 1.44967 13 2.00195V11.002H22C22.5523 11.002 23 11.4497 23 12.002C23 12.5542 22.5523 13.002 22 13.002H13V22.002C13 22.5542 12.5523 23.002 12 23.002C11.4477 23.002 11 22.5542 11 22.002V13.002H2C1.44772 13.002 1 12.5542 1 12.002C1 11.4497 1.44772 11.002 2 11.002H11V2.00195C11 1.44967 11.4477 1.00195 12 1.00195Z" fill="#7772F1"/>
</svg>
