<svg width="180" height="44" viewBox="0 0 180 44" fill="none" xmlns="http://www.w3.org/2000/svg">
<rect x="0.5" y="0.501953" width="179" height="43" rx="3.5" stroke="#7772F1"/>
<path d="M64.5528 27.002H63.0968C62.9335 27.002 62.7981 26.9623 62.6908 26.883C62.5881 26.799 62.5135 26.6963 62.4668 26.575L61.7108 24.51H57.5178L56.7618 26.575C56.7245 26.6823 56.6498 26.7803 56.5378 26.869C56.4305 26.9576 56.2975 27.002 56.1388 27.002H54.6758L58.6518 16.88H60.5768L64.5528 27.002ZM58.0008 23.18H61.2278L59.9958 19.813C59.9398 19.6636 59.8768 19.4886 59.8068 19.288C59.7415 19.0826 59.6761 18.861 59.6108 18.623C59.5455 18.861 59.4801 19.0826 59.4148 19.288C59.3541 19.4933 59.2935 19.673 59.2328 19.827L58.0008 23.18ZM65.9972 29.347V19.82H67.0542C67.1662 19.82 67.2619 19.8456 67.3412 19.897C67.4206 19.9483 67.4719 20.0276 67.4952 20.135L67.6352 20.8C67.9246 20.4686 68.2559 20.2003 68.6292 19.995C69.0072 19.7896 69.4482 19.687 69.9522 19.687C70.3442 19.687 70.7012 19.7686 71.0232 19.932C71.3499 20.0953 71.6299 20.3333 71.8632 20.646C72.1012 20.954 72.2832 21.3366 72.4092 21.794C72.5399 22.2466 72.6052 22.767 72.6052 23.355C72.6052 23.8916 72.5329 24.3886 72.3882 24.846C72.2436 25.3033 72.0359 25.7 71.7652 26.036C71.4992 26.372 71.1749 26.6356 70.7922 26.827C70.4142 27.0136 69.9896 27.107 69.5182 27.107C69.1122 27.107 68.7669 27.0463 68.4822 26.925C68.2022 26.799 67.9502 26.6263 67.7262 26.407V29.347H65.9972ZM69.3572 21.052C68.9979 21.052 68.6899 21.129 68.4332 21.283C68.1812 21.4323 67.9456 21.6446 67.7262 21.92V25.14C67.9222 25.3826 68.1346 25.553 68.3632 25.651C68.5966 25.7443 68.8462 25.791 69.1122 25.791C69.3736 25.791 69.6092 25.742 69.8192 25.644C70.0339 25.546 70.2136 25.3966 70.3582 25.196C70.5076 24.9953 70.6219 24.7433 70.7012 24.44C70.7806 24.132 70.8202 23.7703 70.8202 23.355C70.8202 22.935 70.7852 22.5803 70.7152 22.291C70.6499 21.997 70.5542 21.759 70.4282 21.577C70.3022 21.395 70.1482 21.262 69.9662 21.178C69.7889 21.094 69.5859 21.052 69.3572 21.052ZM74.4133 29.347V19.82H75.4703C75.5823 19.82 75.6779 19.8456 75.7573 19.897C75.8366 19.9483 75.8879 20.0276 75.9113 20.135L76.0513 20.8C76.3406 20.4686 76.6719 20.2003 77.0453 19.995C77.4233 19.7896 77.8643 19.687 78.3683 19.687C78.7603 19.687 79.1173 19.7686 79.4393 19.932C79.7659 20.0953 80.0459 20.3333 80.2793 20.646C80.5173 20.954 80.6993 21.3366 80.8253 21.794C80.9559 22.2466 81.0213 22.767 81.0213 23.355C81.0213 23.8916 80.9489 24.3886 80.8043 24.846C80.6596 25.3033 80.4519 25.7 80.1813 26.036C79.9153 26.372 79.5909 26.6356 79.2083 26.827C78.8303 27.0136 78.4056 27.107 77.9343 27.107C77.5283 27.107 77.1829 27.0463 76.8983 26.925C76.6183 26.799 76.3663 26.6263 76.1423 26.407V29.347H74.4133ZM77.7733 21.052C77.4139 21.052 77.1059 21.129 76.8493 21.283C76.5973 21.4323 76.3616 21.6446 76.1423 21.92V25.14C76.3383 25.3826 76.5506 25.553 76.7793 25.651C77.0126 25.7443 77.2623 25.791 77.5283 25.791C77.7896 25.791 78.0253 25.742 78.2353 25.644C78.4499 25.546 78.6296 25.3966 78.7743 25.196C78.9236 24.9953 79.0379 24.7433 79.1173 24.44C79.1966 24.132 79.2363 23.7703 79.2363 23.355C79.2363 22.935 79.2013 22.5803 79.1313 22.291C79.0659 21.997 78.9703 21.759 78.8443 21.577C78.7183 21.395 78.5643 21.262 78.3823 21.178C78.2049 21.094 78.0019 21.052 77.7733 21.052ZM84.6703 16.6V27.002H82.9413V16.6H84.6703ZM89.6781 28.976C89.6267 29.0973 89.5591 29.1883 89.4751 29.249C89.3957 29.3143 89.2721 29.347 89.1041 29.347H87.8161L89.1601 26.47L86.2551 19.82H87.7671C87.9071 19.82 88.0144 19.8526 88.0891 19.918C88.1637 19.9833 88.2197 20.058 88.2571 20.142L89.7901 23.866C89.8414 23.9873 89.8857 24.1133 89.9231 24.244C89.9604 24.3746 89.9931 24.5053 90.0211 24.636C90.0584 24.5006 90.0981 24.37 90.1401 24.244C90.1867 24.118 90.2357 23.9896 90.2871 23.859L91.7291 20.142C91.7664 20.0486 91.8271 19.9716 91.9111 19.911C91.9997 19.8503 92.0977 19.82 92.2051 19.82H93.5911L89.6781 28.976ZM98.3019 27.002V19.82H99.3589C99.5829 19.82 99.7299 19.925 99.7999 20.135L99.9189 20.702C100.064 20.5526 100.215 20.4173 100.374 20.296C100.537 20.1746 100.708 20.0696 100.885 19.981C101.067 19.8923 101.261 19.8246 101.466 19.778C101.671 19.7313 101.895 19.708 102.138 19.708C102.53 19.708 102.878 19.7756 103.181 19.911C103.484 20.0416 103.736 20.2283 103.937 20.471C104.142 20.709 104.296 20.996 104.399 21.332C104.506 21.6633 104.56 22.0296 104.56 22.431V27.002H102.831V22.431C102.831 21.9923 102.728 21.654 102.523 21.416C102.322 21.1733 102.019 21.052 101.613 21.052C101.314 21.052 101.034 21.1196 100.773 21.255C100.512 21.3903 100.264 21.5746 100.031 21.808V27.002H98.3019ZM109.825 19.708C110.362 19.708 110.847 19.7943 111.281 19.967C111.72 20.1396 112.093 20.3846 112.401 20.702C112.709 21.0193 112.947 21.4066 113.115 21.864C113.283 22.3213 113.367 22.8323 113.367 23.397C113.367 23.9663 113.283 24.4796 113.115 24.937C112.947 25.3943 112.709 25.784 112.401 26.106C112.093 26.428 111.72 26.6753 111.281 26.848C110.847 27.0206 110.362 27.107 109.825 27.107C109.288 27.107 108.801 27.0206 108.362 26.848C107.923 26.6753 107.548 26.428 107.235 26.106C106.927 25.784 106.687 25.3943 106.514 24.937C106.346 24.4796 106.262 23.9663 106.262 23.397C106.262 22.8323 106.346 22.3213 106.514 21.864C106.687 21.4066 106.927 21.0193 107.235 20.702C107.548 20.3846 107.923 20.1396 108.362 19.967C108.801 19.7943 109.288 19.708 109.825 19.708ZM109.825 25.777C110.422 25.777 110.863 25.5763 111.148 25.175C111.437 24.7736 111.582 24.1856 111.582 23.411C111.582 22.6363 111.437 22.046 111.148 21.64C110.863 21.234 110.422 21.031 109.825 21.031C109.218 21.031 108.77 21.2363 108.481 21.647C108.192 22.053 108.047 22.641 108.047 23.411C108.047 24.181 108.192 24.769 108.481 25.175C108.77 25.5763 109.218 25.777 109.825 25.777ZM114.341 19.82H115.713C115.844 19.82 115.953 19.8503 116.042 19.911C116.131 19.9716 116.187 20.0486 116.21 20.142L117.239 23.978C117.295 24.188 117.339 24.3933 117.372 24.594C117.409 24.7946 117.444 24.9953 117.477 25.196C117.528 24.9953 117.582 24.7946 117.638 24.594C117.699 24.3933 117.762 24.188 117.827 23.978L119.017 20.128C119.045 20.0346 119.101 19.9576 119.185 19.897C119.269 19.8363 119.367 19.806 119.479 19.806H120.242C120.368 19.806 120.473 19.8363 120.557 19.897C120.641 19.9576 120.697 20.0346 120.725 20.128L121.901 24.048C121.962 24.2486 122.015 24.4446 122.062 24.636C122.113 24.8226 122.162 25.0116 122.209 25.203C122.242 25.0023 122.277 24.8016 122.314 24.601C122.356 24.4003 122.407 24.1926 122.468 23.978L123.532 20.142C123.555 20.0486 123.611 19.9716 123.7 19.911C123.789 19.8503 123.891 19.82 124.008 19.82H125.317L123.042 27.002H121.649C121.5 27.002 121.392 26.8993 121.327 26.694L120.032 22.543C119.99 22.4076 119.95 22.2723 119.913 22.137C119.88 21.997 119.852 21.8593 119.829 21.724C119.801 21.864 119.771 22.004 119.738 22.144C119.705 22.2793 119.668 22.417 119.626 22.557L118.317 26.694C118.252 26.8993 118.126 27.002 117.939 27.002H116.616L114.341 19.82Z" fill="#7772F1"/>
</svg>
