<svg width="129" height="40" viewBox="0 0 129 40" fill="none" xmlns="http://www.w3.org/2000/svg">
<path d="M5.691 34.013C5.96167 34.013 6.209 34.0013 6.433 33.978C6.66167 33.95 6.87633 33.9103 7.077 33.859C7.27767 33.8077 7.46667 33.747 7.644 33.677C7.82133 33.6023 7.99867 33.5183 8.176 33.425V31.213H6.622C6.53333 31.213 6.461 31.1873 6.405 31.136C6.35367 31.0847 6.328 31.0217 6.328 30.947V30.177H9.408V34.027C9.156 34.209 8.89233 34.3677 8.617 34.503C8.34633 34.6383 8.05467 34.7527 7.742 34.846C7.434 34.9347 7.10267 35 6.748 35.042C6.39333 35.0887 6.00833 35.112 5.593 35.112C4.865 35.112 4.19767 34.9883 3.591 34.741C2.98433 34.489 2.46167 34.139 2.023 33.691C1.58433 33.2383 1.24133 32.697 0.994 32.067C0.751333 31.437 0.63 30.744 0.63 29.988C0.63 29.2227 0.749 28.525 0.987 27.895C1.22967 27.265 1.57267 26.726 2.016 26.278C2.464 25.8253 3.003 25.4753 3.633 25.228C4.26767 24.9807 4.977 24.857 5.761 24.857C6.15767 24.857 6.52633 24.8873 6.867 24.948C7.20767 25.004 7.52267 25.088 7.812 25.2C8.106 25.3073 8.37667 25.4403 8.624 25.599C8.87133 25.753 9.10233 25.928 9.317 26.124L8.932 26.74C8.85267 26.866 8.75 26.929 8.624 26.929C8.54933 26.929 8.46767 26.9033 8.379 26.852C8.26233 26.7867 8.13167 26.7073 7.987 26.614C7.84233 26.5207 7.665 26.432 7.455 26.348C7.24967 26.2593 7.00467 26.1847 6.72 26.124C6.44 26.0633 6.10633 26.033 5.719 26.033C5.15433 26.033 4.64333 26.1263 4.186 26.313C3.72867 26.495 3.339 26.7587 3.017 27.104C2.695 27.4447 2.44767 27.86 2.275 28.35C2.10233 28.8353 2.016 29.3813 2.016 29.988C2.016 30.6227 2.10467 31.1897 2.282 31.689C2.464 32.1837 2.71833 32.6037 3.045 32.949C3.37167 33.2943 3.759 33.558 4.207 33.74C4.655 33.922 5.14967 34.013 5.691 34.013ZM20.8163 29.988C20.8163 30.7393 20.6973 31.43 20.4593 32.06C20.2213 32.6853 19.8853 33.2243 19.4513 33.677C19.0173 34.1297 18.4946 34.482 17.8833 34.734C17.2766 34.9813 16.6046 35.105 15.8673 35.105C15.1299 35.105 14.4579 34.9813 13.8513 34.734C13.2446 34.482 12.7243 34.1297 12.2903 33.677C11.8563 33.2243 11.5203 32.6853 11.2823 32.06C11.0443 31.43 10.9253 30.7393 10.9253 29.988C10.9253 29.2367 11.0443 28.5483 11.2823 27.923C11.5203 27.293 11.8563 26.7517 12.2903 26.299C12.7243 25.8417 13.2446 25.487 13.8513 25.235C14.4579 24.983 15.1299 24.857 15.8673 24.857C16.6046 24.857 17.2766 24.983 17.8833 25.235C18.4946 25.487 19.0173 25.8417 19.4513 26.299C19.8853 26.7517 20.2213 27.293 20.4593 27.923C20.6973 28.5483 20.8163 29.2367 20.8163 29.988ZM19.4233 29.988C19.4233 29.372 19.3393 28.819 19.1713 28.329C19.0033 27.839 18.7653 27.426 18.4573 27.09C18.1493 26.7493 17.7759 26.488 17.3373 26.306C16.8986 26.124 16.4086 26.033 15.8673 26.033C15.3306 26.033 14.8429 26.124 14.4043 26.306C13.9656 26.488 13.5899 26.7493 13.2773 27.09C12.9693 27.426 12.7313 27.839 12.5633 28.329C12.3953 28.819 12.3113 29.372 12.3113 29.988C12.3113 30.604 12.3953 31.157 12.5633 31.647C12.7313 32.1323 12.9693 32.5453 13.2773 32.886C13.5899 33.222 13.9656 33.481 14.4043 33.663C14.8429 33.8403 15.3306 33.929 15.8673 33.929C16.4086 33.929 16.8986 33.8403 17.3373 33.663C17.7759 33.481 18.1493 33.222 18.4573 32.886C18.7653 32.5453 19.0033 32.1323 19.1713 31.647C19.3393 31.157 19.4233 30.604 19.4233 29.988ZM32.2082 24.969V26.11H28.9672V35H27.6092V26.11H24.3542V24.969H32.2082ZM42.2674 29.988C42.2674 30.7393 42.1484 31.43 41.9104 32.06C41.6724 32.6853 41.3364 33.2243 40.9024 33.677C40.4684 34.1297 39.9458 34.482 39.3344 34.734C38.7278 34.9813 38.0558 35.105 37.3184 35.105C36.5811 35.105 35.9091 34.9813 35.3024 34.734C34.6958 34.482 34.1754 34.1297 33.7414 33.677C33.3074 33.2243 32.9714 32.6853 32.7334 32.06C32.4954 31.43 32.3764 30.7393 32.3764 29.988C32.3764 29.2367 32.4954 28.5483 32.7334 27.923C32.9714 27.293 33.3074 26.7517 33.7414 26.299C34.1754 25.8417 34.6958 25.487 35.3024 25.235C35.9091 24.983 36.5811 24.857 37.3184 24.857C38.0558 24.857 38.7278 24.983 39.3344 25.235C39.9458 25.487 40.4684 25.8417 40.9024 26.299C41.3364 26.7517 41.6724 27.293 41.9104 27.923C42.1484 28.5483 42.2674 29.2367 42.2674 29.988ZM40.8744 29.988C40.8744 29.372 40.7904 28.819 40.6224 28.329C40.4544 27.839 40.2164 27.426 39.9084 27.09C39.6004 26.7493 39.2271 26.488 38.7884 26.306C38.3498 26.124 37.8598 26.033 37.3184 26.033C36.7818 26.033 36.2941 26.124 35.8554 26.306C35.4168 26.488 35.0411 26.7493 34.7284 27.09C34.4204 27.426 34.1824 27.839 34.0144 28.329C33.8464 28.819 33.7624 29.372 33.7624 29.988C33.7624 30.604 33.8464 31.157 34.0144 31.647C34.1824 32.1323 34.4204 32.5453 34.7284 32.886C35.0411 33.222 35.4168 33.481 35.8554 33.663C36.2941 33.8403 36.7818 33.929 37.3184 33.929C37.8598 33.929 38.3498 33.8403 38.7884 33.663C39.2271 33.481 39.6004 33.222 39.9084 32.886C40.2164 32.5453 40.4544 32.1323 40.6224 31.647C40.7904 31.157 40.8744 30.604 40.8744 29.988ZM53.6594 24.969V26.11H50.4184V35H49.0604V26.11H45.8054V24.969H53.6594ZM63.7186 29.988C63.7186 30.7393 63.5996 31.43 63.3616 32.06C63.1236 32.6853 62.7876 33.2243 62.3536 33.677C61.9196 34.1297 61.3969 34.482 60.7856 34.734C60.1789 34.9813 59.5069 35.105 58.7696 35.105C58.0323 35.105 57.3603 34.9813 56.7536 34.734C56.1469 34.482 55.6266 34.1297 55.1926 33.677C54.7586 33.2243 54.4226 32.6853 54.1846 32.06C53.9466 31.43 53.8276 30.7393 53.8276 29.988C53.8276 29.2367 53.9466 28.5483 54.1846 27.923C54.4226 27.293 54.7586 26.7517 55.1926 26.299C55.6266 25.8417 56.1469 25.487 56.7536 25.235C57.3603 24.983 58.0323 24.857 58.7696 24.857C59.5069 24.857 60.1789 24.983 60.7856 25.235C61.3969 25.487 61.9196 25.8417 62.3536 26.299C62.7876 26.7517 63.1236 27.293 63.3616 27.923C63.5996 28.5483 63.7186 29.2367 63.7186 29.988ZM62.3256 29.988C62.3256 29.372 62.2416 28.819 62.0736 28.329C61.9056 27.839 61.6676 27.426 61.3596 27.09C61.0516 26.7493 60.6783 26.488 60.2396 26.306C59.8009 26.124 59.3109 26.033 58.7696 26.033C58.2329 26.033 57.7453 26.124 57.3066 26.306C56.8679 26.488 56.4923 26.7493 56.1796 27.09C55.8716 27.426 55.6336 27.839 55.4656 28.329C55.2976 28.819 55.2136 29.372 55.2136 29.988C55.2136 30.604 55.2976 31.157 55.4656 31.647C55.6336 32.1323 55.8716 32.5453 56.1796 32.886C56.4923 33.222 56.8679 33.481 57.3066 33.663C57.7453 33.8403 58.2329 33.929 58.7696 33.929C59.3109 33.929 59.8009 33.8403 60.2396 33.663C60.6783 33.481 61.0516 33.222 61.3596 32.886C61.6676 32.5453 61.9056 32.1323 62.0736 31.647C62.2416 31.157 62.3256 30.604 62.3256 29.988ZM67.0625 31.248V35H65.7115V24.969H68.6725C69.3072 24.969 69.8578 25.0437 70.3245 25.193C70.7958 25.3377 71.1855 25.5453 71.4935 25.816C71.8015 26.0867 72.0302 26.4133 72.1795 26.796C72.3335 27.1787 72.4105 27.6057 72.4105 28.077C72.4105 28.5437 72.3288 28.9707 72.1655 29.358C72.0022 29.7453 71.7618 30.079 71.4445 30.359C71.1318 30.639 70.7422 30.8583 70.2755 31.017C69.8088 31.171 69.2745 31.248 68.6725 31.248H67.0625ZM67.0625 30.17H68.6725C69.0598 30.17 69.4005 30.1187 69.6945 30.016C69.9932 29.9133 70.2428 29.771 70.4435 29.589C70.6442 29.4023 70.7958 29.1807 70.8985 28.924C71.0012 28.6673 71.0525 28.385 71.0525 28.077C71.0525 27.4377 70.8542 26.9383 70.4575 26.579C70.0655 26.2197 69.4705 26.04 68.6725 26.04H67.0625V30.17Z" fill="white"/>
<rect x="89" width="40" height="40" rx="4" fill="#7772F1"/>
<path fill-rule="evenodd" clip-rule="evenodd" d="M101.293 23.7071C100.902 23.3166 100.902 22.6834 101.293 22.2929L108.293 15.2929C108.683 14.9024 109.317 14.9024 109.707 15.2929L116.707 22.2929C117.098 22.6834 117.098 23.3166 116.707 23.7071C116.317 24.0976 115.683 24.0976 115.293 23.7071L109 17.4142L102.707 23.7071C102.317 24.0976 101.683 24.0976 101.293 23.7071Z" fill="white"/>
</svg>
